<?xml version="1.0" encoding="UTF-8" standalone="no"?>
<!-- Created with Inkscape (http://www.inkscape.org/) -->

<svg
   xmlns:dc="http://purl.org/dc/elements/1.1/"
   xmlns:cc="http://creativecommons.org/ns#"
   xmlns:rdf="http://www.w3.org/1999/02/22-rdf-syntax-ns#"
   xmlns:svg="http://www.w3.org/2000/svg"
   xmlns="http://www.w3.org/2000/svg"
   xmlns:xlink="http://www.w3.org/1999/xlink"
   xmlns:sodipodi="http://sodipodi.sourceforge.net/DTD/sodipodi-0.dtd"
   xmlns:inkscape="http://www.inkscape.org/namespaces/inkscape"
   width="28.771086"
   height="39.405411"
   id="svg2"
   version="1.1"
   inkscape:version="0.48.2 r9819"
   sodipodi:docname="dued1.2.svg">
  <defs
     id="defs4" />
  <sodipodi:namedview
     id="base"
     pagecolor="#ffffff"
     bordercolor="#666666"
     borderopacity="1.0"
     inkscape:pageopacity="0.0"
     inkscape:pageshadow="2"
     inkscape:zoom="8.0000004"
     inkscape:cx="6.1878211"
     inkscape:cy="16.198628"
     inkscape:document-units="px"
     inkscape:current-layer="g3853"
     showgrid="false"
     inkscape:showpageshadow="false"
     showborder="true"
     inkscape:window-width="1280"
     inkscape:window-height="727"
     inkscape:window-x="0"
     inkscape:window-y="25"
     inkscape:window-maximized="1"
     fit-margin-top="0"
     fit-margin-left="0"
     fit-margin-right="0"
     fit-margin-bottom="0">
    <inkscape:grid
       type="xygrid"
       id="grid3895"
       empspacing="5"
       visible="true"
       enabled="true"
       snapvisiblegridlinesonly="true" />
  </sodipodi:namedview>
  <metadata
     id="metadata7">
    <rdf:RDF>
      <cc:Work
         rdf:about="">
        <dc:format>image/svg+xml</dc:format>
        <dc:type
           rdf:resource="http://purl.org/dc/dcmitype/StillImage" />
        <dc:title />
      </cc:Work>
    </rdf:RDF>
  </metadata>
  <g
     inkscape:groupmode="layer"
     id="layer1"
     inkscape:label="kuva"
     sodipodi:insensitive="true"
     style="display:none">
    <image
       style="display:inline"
       y="-10.700621"
       x="6.6830497"
       id="image3008"
       xlink:href="file:///Z:/kuvat/avatar/DSCN0688.JPG"
       height="59.903446"
       width="79.871269" />
  </g>
  <g
     inkscape:groupmode="layer"
     id="layer2"
     inkscape:label="dued"
     style="display:inline"
     transform="translate(-347.93258,-516.37667)">
    <g
       id="g3853"
       style="stroke:#000000;stroke-width:66.66666412;stroke-miterlimit:4;stroke-opacity:1;stroke-dasharray:none"
       transform="matrix(0.015,0,0,0.015,356.88335,527.79908)">
      <path
         sodipodi:nodetypes="zzzzzzzzz"
         inkscape:connector-curvature="0"
         id="path3783"
         d="M -229.23754,601.24799 C -406.00665,464.86634 -546.89199,183.9346 -545.17947,-60.140826 c 1.71252,-244.075434 66.03955,-424.636424 242.5006,-543.213684 176.46104,-118.57726 432.21103,-129.92951 643.98719,-123.30282 211.77615,6.62669 531.27873,97.62388 687.26308,259.01951 155.9844,161.39563 165.8523,367.793859 168.3333,499.285716 2.481,131.491854 -33.4226,432.738894 -262.61899,600.179474 C 705.08928,799.26795 432.5991,792.53021 290.75885,783.74558 148.9186,774.96096 -52.468436,737.62965 -229.23754,601.24799 z"
         style="fill:none;stroke:#000000;stroke-width:66.66666412;stroke-linecap:butt;stroke-linejoin:miter;stroke-miterlimit:4;stroke-opacity:1;stroke-dasharray:none" />
      <path
         sodipodi:nodetypes="zsssz"
         inkscape:connector-curvature="0"
         id="path3805"
         d="m 588.91892,-337.43936 c 105.19654,-10.11505 190.35714,58.00326 200.01021,149.50257 8.23206,78.02986 -37.48283,136.067229 -113.13709,159.604109 -90.91373,28.28427135 -206.26881,-13.056268 -232.33508,-105.055869 -26.17701,-92.39046 40.26542,-193.93576 145.46196,-204.05081 z"
         style="fill:none;stroke:#000000;stroke-width:66.66666412;stroke-linecap:butt;stroke-linejoin:miter;stroke-miterlimit:4;stroke-opacity:1;stroke-dasharray:none" />
      <path
         sodipodi:nodetypes="zzzzszzzz"
         inkscape:connector-curvature="0"
         id="path3807"
         d="m 283.13756,221.13333 c 188.6245,10.24912 227.32645,-58.12835 333.05549,-43.56325 105.72904,14.5651 135.25104,110.81916 115.87291,186.07851 -19.37812,75.25936 -82.47319,128.80329 -170.1026,155.0232 C 474.33395,544.8917 386.33277,548.3431 281.44922,541.44635 160.24524,533.47644 90.327778,524.54806 -7.8934111,476.95404 -106.1146,429.36003 -146.41319,362.97413 -148.78706,298.36749 c -2.37387,-64.60664 26.25548,-128.35373 128.584009,-132.91924 102.328528,-4.56551 114.716108,45.43596 303.340611,55.68508 z"
         style="fill:none;stroke:#000000;stroke-width:66.66666412;stroke-linecap:butt;stroke-linejoin:miter;stroke-miterlimit:4;stroke-opacity:1;stroke-dasharray:none" />
      <path
         sodipodi:nodetypes="czzzzzzzc"
         inkscape:connector-curvature="0"
         id="path3809"
         d="m 1101.0663,415.96608 c 66.67,56.56855 121.2539,130.22933 149.5025,218.19295 28.2486,87.96362 58.9351,266.47608 24.2437,436.34527 -34.6914,169.8692 -117.153,326.6263 -254.5584,428.3453 -137.40541,101.719 -318.62305,128.7523 -458.60929,127.2792 -139.98624,-1.4731 -297.83908,-21.2332 -428.30467,-111.0964 -130.4655852,-89.8632 -219.876544,-210.8055 -264.5337,-324.0268 -44.65716,-113.2213 -65.70201,-258.26232 -70.12142,-370.05253 -4.41942,-111.79021 21.50783,-192.85496 21.50783,-192.85496"
         style="fill:none;stroke:#000000;stroke-width:66.66666412;stroke-linecap:butt;stroke-linejoin:miter;stroke-miterlimit:4;stroke-opacity:1;stroke-dasharray:none" />
      <path
         sodipodi:nodetypes="cc"
         inkscape:connector-curvature="0"
         id="path3811"
         d="m 929.34035,1563.4993 c 0,0 24.24365,149.5026 18.18274,268.7006"
         style="fill:none;stroke:#000000;stroke-width:66.66666412;stroke-linecap:round;stroke-linejoin:miter;stroke-miterlimit:4;stroke-opacity:1;stroke-dasharray:none" />
      <path
         sodipodi:nodetypes="cc"
         inkscape:connector-curvature="0"
         id="path3813"
         d="m 218.19294,1569.5603 c 0,0 -54.54823,135.3604 -48.48731,248.4975"
         style="fill:none;stroke:#000000;stroke-width:66.66666412;stroke-linecap:round;stroke-linejoin:miter;stroke-miterlimit:4;stroke-opacity:1;stroke-dasharray:none" />
      <g
         id="g3827"
         style="stroke:#000000;stroke-width:66.66666412;stroke-miterlimit:4;stroke-opacity:1;stroke-dasharray:none">
        <path
           style="fill:none;stroke:#000000;stroke-width:66.66666412;stroke-linecap:round;stroke-linejoin:miter;stroke-miterlimit:4;stroke-opacity:1;stroke-dasharray:none"
           d="m 990,749.50504 c 57.1429,48.57143 90.4321,114.64906 114.2857,175.71429 C 1140,1016.6479 1150,1140.9336 1147.1429,1250.9336"
           id="path3815"
           inkscape:connector-curvature="0"
           sodipodi:nodetypes="csc" />
        <path
           style="fill:none;stroke:#000000;stroke-width:66.66666412;stroke-linecap:round;stroke-linejoin:miter;stroke-miterlimit:4;stroke-opacity:1;stroke-dasharray:none"
           d="m 1041.4286,1235.2193 c 17.0123,-63.1951 48.9145,-110.3088 101.4285,-108.5714 50.3584,1.6661 64.2858,14.2857 84.2858,52.8571"
           id="path3817"
           inkscape:connector-curvature="0"
           sodipodi:nodetypes="csc" />
      </g>
      <g
         id="g3823"
         style="stroke:#000000;stroke-width:66.66666412;stroke-miterlimit:4;stroke-opacity:1;stroke-dasharray:none">
        <path
           style="fill:none;stroke:#000000;stroke-width:66.66666412;stroke-linecap:round;stroke-linejoin:miter;stroke-miterlimit:4;stroke-opacity:1;stroke-dasharray:none"
           d="m -202.03051,795.78344 c -40.4061,18.18274 -90.91373,80.8122 -113.13708,181.82745 -26.11743,118.71561 -38.3858,200.01021 -34.34519,282.84271"
           id="path3819"
           inkscape:connector-curvature="0"
           sodipodi:nodetypes="csc" />
        <path
           style="fill:none;stroke:#000000;stroke-width:66.66666412;stroke-linecap:round;stroke-linejoin:miter;stroke-miterlimit:4;stroke-opacity:1;stroke-dasharray:none"
           d="m -474.7717,1224.0881 c 18.18275,-74.7513 54.54824,-125.2589 135.36044,-125.2589 80.81221,0 115.1574,62.6295 123.23862,125.2589"
           id="path3821"
           inkscape:connector-curvature="0"
           sodipodi:nodetypes="csc" />
      </g>
      <path
         sodipodi:nodetypes="zsssz"
         inkscape:connector-curvature="0"
         id="path3805-5"
         d="m -90.30184,-347.0802 c 105.19654,-10.11505 190.35715,58.00325 200.01021,149.50257 8.23206,78.02987 -37.482827,136.067226 -113.13709,159.604106 -90.91374,28.2842696 -206.2688,-13.05627 -232.33507,-105.055866 -26.17701,-92.39046 40.26542,-193.93576 145.46195,-204.05081 z"
         style="fill:none;stroke:#000000;stroke-width:66.66666412;stroke-linecap:butt;stroke-linejoin:miter;stroke-miterlimit:4;stroke-opacity:1;stroke-dasharray:none;display:inline" />
    </g>
  </g>
  <g
     inkscape:groupmode="layer"
     id="layer4"
     inkscape:label="Layer"
     style="display:none">
    <path
       sodipodi:nodetypes="csssssssc"
       inkscape:connector-curvature="0"
       id="path3807-1"
       d="m 11.388669,15.00685 c 1.48492,0.30305 2.73678,0.47203 3.72746,0.27274 1.51618,-0.305 1.54473,-1.38536 3.12137,-1.24248 1.58006,0.14318 1.91246,1.75281 1.84858,2.63649 -0.0875,1.21003 -0.55743,2.1576 -1.81827,2.75772 -1.95795,0.93192 -7.51554,0.45457 -9.7277695,-0.96975 -2.21223,-1.42431 -1.72736,-3.06076 -1.66675,-3.3638 0.0606,-0.30305 0.61875,-1.29702 1.81827,-1.24249 1.3333995,0.0606 1.4546195,0.81822 2.6971095,1.15157 z"
       style="fill:none;stroke:#000000;stroke-width:0.99999994;stroke-linecap:butt;stroke-linejoin:miter;stroke-miterlimit:4;stroke-opacity:1;stroke-dasharray:none;display:inline" />
  </g>
</svg>
