  0
SECTION
  2
HEADER
  9
$ACADVER
  1
AC1014
  9
$HANDSEED
  5
FFFF
  9
$MEASUREMENT
 70
     1
  0
ENDSEC
  0
SECTION
  2
TABLES
  0
TABLE
  2
VPORT
  5
8
330
0
100
AcDbSymbolTable
 70
     4
  0
VPORT
  5
2E
330
8
100
AcDbSymbolTableRecord
100
AcDbViewportTableRecord
  2
*ACTIVE
 70
     0
 10
0.0
 20
0.0
 11
1.0
 21
1.0
 12
210.0
 22
148.5
 13
0.0
 23
0.0
 14
10.0
 24
10.0
 15
10.0
 25
10.0
 16
0.0
 26
0.0
 36
1.0
 17
0.0
 27
0.0
 37
0.0
 40
341.0
 41
1.24
 42
50.0
 43
0.0
 44
0.0
 50
0.0
 51
0.0
 71
     0
 72
   100
 73
     1
 74
     3
 75
     0
 76
     0
 77
     0
 78
     0
  0
ENDTAB
  0
TABLE
  2
LTYPE
  5
5
330
0
100
AcDbSymbolTable
 70
     1
  0
LTYPE
  5
14
330
5
100
AcDbSymbolTableRecord
100
AcDbLinetypeTableRecord
  2
BYBLOCK
 70
     0
  3

 72
    65
 73
     0
 40
0.0
  0
LTYPE
  5
15
330
5
100
AcDbSymbolTableRecord
100
AcDbLinetypeTableRecord
  2
BYLAYER
 70
     0
  3

 72
    65
 73
     0
 40
0.0
  0
LTYPE
  5
16
330
5
100
AcDbSymbolTableRecord
100
AcDbLinetypeTableRecord
  2
CONTINUOUS
 70
     0
  3
Solid line
 72
    65
 73
     0
 40
0.0
  0
ENDTAB
  0
TABLE
  2
LAYER
  5
2
100
AcDbSymbolTable
 70
3
  0
LAYER
  5
50
100
AcDbSymbolTableRecord
100
AcDbLayerTableRecord
  2
0
 70
0
  6
CONTINUOUS
  0
LAYER
  5
51
100
AcDbSymbolTableRecord
100
AcDbLayerTableRecord
  2
dued
 70
0
  6
CONTINUOUS
  0
LAYER
  5
52
100
AcDbSymbolTableRecord
100
AcDbLayerTableRecord
  2
fill
 70
0
  6
CONTINUOUS
  0
ENDTAB
  0
TABLE
  2
STYLE
  5
3
330
0
100
AcDbSymbolTable
 70
     1
  0
STYLE
  5
11
330
3
100
AcDbSymbolTableRecord
100
AcDbTextStyleTableRecord
  2
STANDARD
 70
     0
 40
0.0
 41
1.0
 50
0.0
 71
     0
 42
2.5
  3
txt
  4

  0
ENDTAB
  0
TABLE
  2
VIEW
  5
6
330
0
100
AcDbSymbolTable
 70
     0
  0
ENDTAB
  0
TABLE
  2
UCS
  5
7
330
0
100
AcDbSymbolTable
 70
     0
  0
ENDTAB
  0
TABLE
  2
APPID
  5
9
330
0
100
AcDbSymbolTable
 70
     2
  0
APPID
  5
12
330
9
100
AcDbSymbolTableRecord
100
AcDbRegAppTableRecord
  2
ACAD
 70
     0
  0
ENDTAB
  0
TABLE
  2
DIMSTYLE
  5
A
330
0
100
AcDbSymbolTable
 70
     1
  0
DIMSTYLE
105
27
330
A
100
AcDbSymbolTableRecord
100
AcDbDimStyleTableRecord
  2
ISO-25
 70
     0
  3

  4

  5

  6

  7

 40
1.0
 41
2.5
 42
0.625
 43
3.75
 44
1.25
 45
0.0
 46
0.0
 47
0.0
 48
0.0
140
2.5
141
2.5
142
0.0
143
0.03937007874016
144
1.0
145
0.0
146
1.0
147
0.625
 71
     0
 72
     0
 73
     0
 74
     0
 75
     0
 76
     0
 77
     1
 78
     8
170
     0
171
     3
172
     1
173
     0
174
     0
175
     0
176
     0
177
     0
178
     0
270
     2
271
     2
272
     2
273
     2
274
     3
340
11
275
     0
280
     0
281
     0
282
     0
283
     0
284
     8
285
     0
286
     0
287
     3
288
     0
  0
ENDTAB
  0
TABLE
  2
BLOCK_RECORD
  5
1
330
0
100
AcDbSymbolTable
 70
     1
  0
BLOCK_RECORD
  5
1F
330
1
100
AcDbSymbolTableRecord
100
AcDbBlockTableRecord
  2
*MODEL_SPACE
  0
BLOCK_RECORD
  5
1B
330
1
100
AcDbSymbolTableRecord
100
AcDbBlockTableRecord
  2
*PAPER_SPACE
  0
ENDTAB
  0
ENDSEC
  0
SECTION
  2
BLOCKS
  0
BLOCK
  5
20
330
1F
100
AcDbEntity
  8
0
100
AcDbBlockBegin
  2
*MODEL_SPACE
 70
     0
 10
0.0
 20
0.0
 30
0.0
  3
*MODEL_SPACE
  1

  0
ENDBLK
  5
21
330
1F
100
AcDbEntity
  8
0
100
AcDbBlockEnd
  0
BLOCK
  5
1C
330
1B
100
AcDbEntity
 67
     1
  8
0
100
AcDbBlockBegin
  2
*PAPER_SPACE
  1

  0
ENDBLK
  5
1D
330
1B
100
AcDbEntity
 67
     1
  8
0
100
AcDbBlockEnd
  0
ENDSEC
  0
SECTION
  2
ENTITIES
  0
LWPOLYLINE
  5
100
100
AcDbEntity
  8
dued
 62
7
100
AcDbPolyline
 90
194
 70
0
 10
35.500000
 20
113.379017
 30
0.0
 10
32.381088
 20
113.317573
 30
0.0
 10
29.215786
 20
113.133903
 30
0.0
 10
26.041068
 20
112.797311
 30
0.0
 10
22.893908
 20
112.277104
 30
0.0
 10
19.811278
 20
111.542584
 30
0.0
 10
16.830154
 20
110.563058
 30
0.0
 10
13.987507
 20
109.307830
 30
0.0
 10
11.320313
 20
107.746204
 30
0.0
 10
9.871278
 20
106.697613
 30
0.0
 10
8.537620
 20
105.578884
 30
0.0
 10
7.316190
 20
104.391036
 30
0.0
 10
6.203844
 20
103.135088
 30
0.0
 10
5.197434
 20
101.812059
 30
0.0
 10
4.293813
 20
100.422967
 30
0.0
 10
2.782352
 20
97.450673
 30
0.0
 10
1.644289
 20
94.226355
 30
0.0
 10
0.854450
 20
90.758164
 30
0.0
 10
0.387661
 20
87.054251
 30
0.0
 10
0.218750
 20
83.122767
 30
0.0
 10
0.276427
 20
81.029741
 30
0.0
 10
0.474403
 20
78.917972
 30
0.0
 10
0.806312
 20
76.798258
 30
0.0
 10
1.265788
 20
74.681398
 30
0.0
 10
2.541978
 20
70.499429
 30
0.0
 10
4.252043
 20
66.458452
 30
0.0
 10
6.345055
 20
62.644849
 30
0.0
 10
8.770088
 20
59.145007
 30
0.0
 10
10.091197
 20
57.539741
 30
0.0
 10
11.476212
 20
56.045309
 30
0.0
 10
12.918769
 20
54.672510
 30
0.0
 10
14.412500
 20
53.432142
 30
0.0
 10
15.706250
 20
52.486829
 30
0.0
 10
15.305814
 20
50.187247
 30
0.0
 10
15.053125
 20
47.035266
 30
0.0
 10
14.271938
 20
46.451725
 30
0.0
 10
13.524789
 20
45.729991
 30
0.0
 10
12.819205
 20
44.872608
 30
0.0
 10
12.162710
 20
43.882119
 30
0.0
 10
11.027088
 20
41.511993
 30
0.0
 10
10.178125
 20
38.639954
 30
0.0
 10
9.335938
 20
34.444641
 30
0.0
 10
8.240780
 20
34.200912
 30
0.0
 10
7.240997
 20
33.808938
 30
0.0
 10
6.348058
 20
33.276612
 30
0.0
 10
5.573438
 20
32.611829
 30
0.0
 10
4.775562
 20
31.629229
 30
0.0
 10
4.149382
 20
30.524393
 30
0.0
 10
3.666480
 20
29.319135
 30
0.0
 10
3.298438
 20
28.035266
 30
0.0
 10
3.275797
 20
27.464544
 30
0.0
 10
3.467099
 20
26.947378
 30
0.0
 10
3.838346
 20
26.539661
 30
0.0
 10
4.355543
 20
26.297289
 30
0.0
 10
4.926261
 20
26.274524
 30
0.0
 10
5.443468
 20
26.465713
 30
0.0
 10
5.851265
 20
26.836872
 30
0.0
 10
6.093750
 20
27.354016
 30
0.0
 10
6.748569
 20
29.275174
 30
0.0
 10
7.162199
 20
30.014741
 30
0.0
 10
7.631250
 20
30.600891
 30
0.0
 10
8.198688
 20
31.075146
 30
0.0
 10
8.881250
 20
31.414954
 30
0.0
 10
8.657820
 20
28.691074
 30
0.0
 10
8.664062
 20
26.055579
 30
0.0
 10
8.884700
 20
25.337317
 30
0.0
 10
9.437384
 20
24.828278
 30
0.0
 10
10.171331
 20
24.667336
 30
0.0
 10
10.886307
 20
24.898400
 30
0.0
 10
11.387252
 20
25.458430
 30
0.0
 10
11.537500
 20
26.194641
 30
0.0
 10
11.537700
 20
28.767753
 30
0.0
 10
11.784375
 20
31.496204
 30
0.0
 10
12.619844
 20
31.094963
 30
0.0
 10
13.270313
 20
30.486829
 30
0.0
 10
13.687116
 20
29.877935
 30
0.0
 10
14.021640
 20
29.159508
 30
0.0
 10
14.428125
 20
27.510266
 30
0.0
 10
14.706143
 20
26.812893
 30
0.0
 10
15.297636
 20
26.350551
 30
0.0
 10
16.041507
 20
26.249163
 30
0.0
 10
16.735158
 20
26.536342
 30
0.0
 10
17.189669
 20
27.133874
 30
0.0
 10
17.281250
 20
27.879016
 30
0.0
 10
17.068235
 20
29.045178
 30
0.0
 10
16.712442
 20
30.199549
 30
0.0
 10
16.189491
 20
31.307716
 30
0.0
 10
15.475000
 20
32.335266
 30
0.0
 10
14.827975
 20
32.991944
 30
0.0
 10
14.065719
 20
33.553396
 30
0.0
 10
13.197948
 20
34.003439
 30
0.0
 10
12.234375
 20
34.325891
 30
0.0
 10
12.987500
 20
38.021204
 30
0.0
 10
13.413300
 20
39.568787
 30
0.0
 10
13.943249
 20
40.923185
 30
0.0
 10
14.541418
 20
42.084796
 30
0.0
 10
15.171875
 20
43.054016
 30
0.0
 10
15.536172
 20
39.486047
 30
0.0
 10
16.142632
 20
35.778906
 30
0.0
 10
17.016838
 20
32.094476
 30
0.0
 10
18.184375
 20
28.594641
 30
0.0
 10
19.041819
 20
26.647161
 30
0.0
 10
20.083691
 20
24.695059
 30
0.0
 10
21.308427
 20
22.757446
 30
0.0
 10
22.714462
 20
20.853432
 30
0.0
 10
24.300233
 20
19.002128
 30
0.0
 10
26.064175
 20
17.222644
 30
0.0
 10
28.004723
 20
15.534090
 30
0.0
 10
30.120313
 20
13.955578
 30
0.0
 10
32.884375
 20
12.321204
 30
0.0
 10
32.282009
 20
10.470131
 30
0.0
 10
31.639442
 20
7.959767
 30
0.0
 10
31.165825
 20
5.046528
 30
0.0
 10
31.057734
 20
3.518960
 30
0.0
 10
31.070313
 20
1.986829
 30
0.0
 10
31.288074
 20
1.261047
 30
0.0
 10
31.844428
 20
0.746607
 30
0.0
 10
32.585010
 20
0.586242
 30
0.0
 10
33.304341
 20
0.824448
 30
0.0
 10
33.802837
 20
1.395131
 30
0.0
 10
33.942187
 20
2.139953
 30
0.0
 10
34.032411
 20
4.634565
 30
0.0
 10
34.445025
 20
7.141368
 30
0.0
 10
35.007001
 20
9.399026
 30
0.0
 10
35.545313
 20
11.146204
 30
0.0
 10
39.036737
 20
10.068877
 30
0.0
 10
42.557265
 20
9.391566
 30
0.0
 10
46.036660
 20
9.031809
 30
0.0
 10
49.404687
 20
8.907141
 30
0.0
 10
52.848032
 20
8.999931
 30
0.0
 10
56.518001
 20
9.396368
 30
0.0
 10
60.295766
 20
10.169676
 30
0.0
 10
62.187939
 20
10.720539
 30
0.0
 10
64.062500
 20
11.393079
 30
0.0
 10
64.520880
 20
6.973348
 30
0.0
 10
64.659892
 20
4.247728
 30
0.0
 10
64.634376
 20
1.525891
 30
0.0
 10
64.790452
 20
0.797707
 30
0.0
 10
65.289739
 20
0.245145
 30
0.0
 10
65.998427
 20
0.016293
 30
0.0
 10
66.726586
 20
0.172482
 30
0.0
 10
67.279071
 20
0.671855
 30
0.0
 10
67.507813
 20
1.380578
 30
0.0
 10
67.527573
 20
4.887624
 30
0.0
 10
67.325098
 20
8.202064
 30
0.0
 10
66.800000
 20
12.649329
 30
0.0
 10
68.463236
 20
13.597641
 30
0.0
 10
70.065625
 20
14.682142
 30
0.0
 10
72.299678
 20
16.535964
 30
0.0
 10
74.297905
 20
18.597432
 30
0.0
 10
76.065098
 20
20.843454
 30
0.0
 10
77.606043
 20
23.250939
 30
0.0
 10
78.925530
 20
25.796798
 30
0.0
 10
80.028347
 20
28.457939
 30
0.0
 10
80.919284
 20
31.211271
 30
0.0
 10
81.603128
 20
34.033704
 30
0.0
 10
82.060475
 20
36.915044
 30
0.0
 10
82.278457
 20
39.763417
 30
0.0
 10
82.292030
 20
42.532932
 30
0.0
 10
82.136148
 20
45.177701
 30
0.0
 10
81.845768
 20
47.651834
 30
0.0
 10
81.455843
 20
49.909440
 30
0.0
 10
80.517184
 20
53.591516
 30
0.0
 10
79.500041
 20
56.148808
 30
0.0
 10
78.182731
 20
58.504163
 30
0.0
 10
76.607649
 20
60.650851
 30
0.0
 10
74.817188
 20
62.582142
 30
0.0
 10
75.815875
 20
64.951120
 30
0.0
 10
76.611801
 20
67.310108
 30
0.0
 10
77.225341
 20
69.622020
 30
0.0
 10
77.676867
 20
71.849771
 30
0.0
 10
78.175374
 20
75.904448
 30
0.0
 10
78.270313
 20
79.177454
 30
0.0
 10
78.030286
 20
84.069873
 30
0.0
 10
77.678489
 20
86.868391
 30
0.0
 10
77.072219
 20
89.812184
 30
0.0
 10
76.136511
 20
92.834059
 30
0.0
 10
74.796402
 20
95.866818
 30
0.0
 10
73.951271
 20
97.366280
 30
0.0
 10
72.976928
 20
98.843265
 30
0.0
 10
71.864003
 20
100.289373
 30
0.0
 10
70.603125
 20
101.696204
 30
0.0
 10
69.172656
 20
103.055407
 30
0.0
 10
67.601626
 20
104.329567
 30
0.0
 10
65.906301
 20
105.518817
 30
0.0
 10
64.102943
 20
106.623287
 30
0.0
 10
60.237189
 20
108.578412
 30
0.0
 10
56.134474
 20
110.195992
 30
0.0
 10
51.924912
 20
111.477075
 30
0.0
 10
47.738612
 20
112.422710
 30
0.0
 10
43.705687
 20
113.033947
 30
0.0
 10
39.956250
 20
113.311833
 30
0.0
 10
35.500000
 20
113.379017
 30
0.0
 10
35.500000
 20
113.379017
 30
0.0
  0
LWPOLYLINE
  5
101
100
AcDbEntity
  8
dued
 62
7
100
AcDbPolyline
 90
76
 70
0
 10
36.401563
 20
110.494642
 30
0.0
 10
39.865625
 20
110.435267
 30
0.0
 10
43.360316
 20
110.159689
 30
0.0
 10
47.168928
 20
109.548950
 30
0.0
 10
51.147200
 20
108.618229
 30
0.0
 10
55.150873
 20
107.382706
 30
0.0
 10
59.035686
 20
105.857562
 30
0.0
 10
62.657381
 20
104.057977
 30
0.0
 10
64.324478
 20
103.060012
 30
0.0
 10
65.871698
 20
101.999131
 30
0.0
 10
67.281008
 20
100.877229
 30
0.0
 10
68.534376
 20
99.696204
 30
0.0
 10
69.652781
 20
98.448327
 30
0.0
 10
70.641090
 20
97.163856
 30
0.0
 10
72.260111
 20
94.512171
 30
0.0
 10
73.456813
 20
91.795226
 30
0.0
 10
74.296575
 20
89.067100
 30
0.0
 10
74.844773
 20
86.381869
 30
0.0
 10
75.166784
 20
83.793612
 30
0.0
 10
75.393751
 20
79.124329
 30
0.0
 10
75.342080
 20
76.798657
 30
0.0
 10
75.063676
 20
73.951177
 30
0.0
 10
74.487463
 20
70.733764
 30
0.0
 10
73.542364
 20
67.298295
 30
0.0
 10
72.157301
 20
63.796647
 30
0.0
 10
71.277572
 20
62.068467
 30
0.0
 10
70.261198
 20
60.380696
 30
0.0
 10
69.099294
 20
58.752318
 30
0.0
 10
67.782977
 20
57.202318
 30
0.0
 10
66.303362
 20
55.749681
 30
0.0
 10
64.651563
 20
54.413391
 30
0.0
 10
62.861544
 20
53.202595
 30
0.0
 10
61.037389
 20
52.148716
 30
0.0
 10
59.189642
 20
51.241507
 30
0.0
 10
57.328845
 20
50.470721
 30
0.0
 10
53.610268
 20
49.297427
 30
0.0
 10
49.965998
 20
48.546853
 30
0.0
 10
46.480372
 20
48.137018
 30
0.0
 10
43.237730
 20
47.985941
 30
0.0
 10
40.322410
 20
48.011643
 30
0.0
 10
37.818751
 20
48.132142
 30
0.0
 10
35.479031
 20
48.332302
 30
0.0
 10
32.952484
 20
48.678659
 30
0.0
 10
30.280191
 20
49.204844
 30
0.0
 10
27.503230
 20
49.944488
 30
0.0
 10
24.662682
 20
50.931221
 30
0.0
 10
21.799627
 20
52.198674
 30
0.0
 10
18.955144
 20
53.780479
 30
0.0
 10
16.170313
 20
55.710267
 30
0.0
 10
14.842072
 20
56.819234
 30
0.0
 10
13.548701
 20
58.065268
 30
0.0
 10
11.095084
 20
60.919970
 30
0.0
 10
8.866498
 20
64.177238
 30
0.0
 10
6.919980
 20
67.739941
 30
0.0
 10
5.312566
 20
71.510947
 30
0.0
 10
4.101292
 20
75.393123
 30
0.0
 10
3.343196
 20
79.289336
 30
0.0
 10
3.151913
 20
81.212352
 30
0.0
 10
3.095312
 20
83.102454
 30
0.0
 10
3.243515
 20
86.813493
 30
0.0
 10
3.650595
 20
90.239604
 30
0.0
 10
4.341446
 20
93.390537
 30
0.0
 10
5.340957
 20
96.276039
 30
0.0
 10
6.674020
 20
98.905858
 30
0.0
 10
8.365527
 20
101.289744
 30
0.0
 10
10.440369
 20
103.437443
 30
0.0
 10
12.923438
 20
105.358704
 30
0.0
 10
15.382653
 20
106.781218
 30
0.0
 10
18.062282
 20
107.928243
 30
0.0
 10
20.920052
 20
108.826020
 30
0.0
 10
23.913695
 20
109.500791
 30
0.0
 10
27.000938
 20
109.978798
 30
0.0
 10
30.139511
 20
110.286281
 30
0.0
 10
33.287142
 20
110.449482
 30
0.0
 10
36.401563
 20
110.494642
 30
0.0
 10
36.401563
 20
110.494642
 30
0.0
  0
LWPOLYLINE
  5
102
100
AcDbEntity
  8
dued
 62
7
100
AcDbPolyline
 90
36
 70
0
 10
22.118751
 20
96.974329
 30
0.0
 10
21.148438
 20
96.925892
 30
0.0
 10
19.219652
 20
96.519833
 30
0.0
 10
17.502969
 20
95.730579
 30
0.0
 10
16.033532
 20
94.617921
 30
0.0
 10
14.846481
 20
93.241647
 30
0.0
 10
13.976961
 20
91.661548
 30
0.0
 10
13.460112
 20
89.937415
 30
0.0
 10
13.331078
 20
88.129037
 30
0.0
 10
13.625000
 20
86.296204
 30
0.0
 10
13.941394
 20
85.404911
 30
0.0
 10
14.359513
 20
84.581548
 30
0.0
 10
15.458756
 20
83.144432
 30
0.0
 10
16.838387
 20
81.996483
 30
0.0
 10
18.414062
 20
81.149329
 30
0.0
 10
20.115313
 20
80.600879
 30
0.0
 10
21.892515
 20
80.349077
 30
0.0
 10
23.692601
 20
80.405604
 30
0.0
 10
25.462500
 20
80.782142
 30
0.0
 10
26.808822
 20
81.314540
 30
0.0
 10
28.022679
 20
82.026677
 30
0.0
 10
29.083078
 20
82.902823
 30
0.0
 10
29.969025
 20
83.927246
 30
0.0
 10
30.659528
 20
85.084214
 30
0.0
 10
31.133593
 20
86.357997
 30
0.0
 10
31.370228
 20
87.732863
 30
0.0
 10
31.348438
 20
89.193079
 30
0.0
 10
31.013733
 20
90.807114
 30
0.0
 10
30.382853
 20
92.290376
 30
0.0
 10
29.486884
 20
93.616627
 30
0.0
 10
28.356913
 20
94.759628
 30
0.0
 10
27.024027
 20
95.693137
 30
0.0
 10
25.519313
 20
96.390917
 30
0.0
 10
23.873859
 20
96.826728
 30
0.0
 10
22.118751
 20
96.974329
 30
0.0
 10
22.118751
 20
96.974329
 30
0.0
  0
LWPOLYLINE
  5
103
100
AcDbEntity
  8
dued
 62
7
100
AcDbPolyline
 90
36
 70
0
 10
51.428125
 20
96.558704
 30
0.0
 10
50.459375
 20
96.510267
 30
0.0
 10
48.530590
 20
96.104209
 30
0.0
 10
46.813907
 20
95.314955
 30
0.0
 10
45.344470
 20
94.202297
 30
0.0
 10
44.157420
 20
92.826023
 30
0.0
 10
43.287899
 20
91.245924
 30
0.0
 10
42.771050
 20
89.521791
 30
0.0
 10
42.642016
 20
87.713412
 30
0.0
 10
42.935938
 20
85.880579
 30
0.0
 10
43.252331
 20
84.989285
 30
0.0
 10
43.670450
 20
84.165923
 30
0.0
 10
44.769694
 20
82.728807
 30
0.0
 10
46.149325
 20
81.580858
 30
0.0
 10
47.725000
 20
80.733704
 30
0.0
 10
49.426006
 20
80.185255
 30
0.0
 10
51.202672
 20
79.933453
 30
0.0
 10
53.002220
 20
79.989979
 30
0.0
 10
54.771875
 20
80.366516
 30
0.0
 10
56.118197
 20
80.898914
 30
0.0
 10
57.332054
 20
81.611052
 30
0.0
 10
58.392453
 20
82.487198
 30
0.0
 10
59.278401
 20
83.511621
 30
0.0
 10
59.968904
 20
84.668589
 30
0.0
 10
60.442969
 20
85.942372
 30
0.0
 10
60.679604
 20
87.317237
 30
0.0
 10
60.657813
 20
88.777454
 30
0.0
 10
60.323109
 20
90.391488
 30
0.0
 10
59.692229
 20
91.874751
 30
0.0
 10
58.796259
 20
93.201002
 30
0.0
 10
57.666288
 20
94.344002
 30
0.0
 10
56.333402
 20
95.277512
 30
0.0
 10
54.828688
 20
95.975292
 30
0.0
 10
53.183234
 20
96.411103
 30
0.0
 10
51.428125
 20
96.558704
 30
0.0
 10
51.428125
 20
96.558704
 30
0.0
  0
LWPOLYLINE
  5
104
100
AcDbEntity
  8
dued
 62
7
100
AcDbPolyline
 90
35
 70
0
 10
22.134375
 20
94.099329
 30
0.0
 10
23.397326
 20
94.005236
 30
0.0
 10
24.556700
 20
93.713061
 30
0.0
 10
25.597313
 20
93.242291
 30
0.0
 10
26.503981
 20
92.612412
 30
0.0
 10
27.261518
 20
91.842909
 30
0.0
 10
27.854740
 20
90.953268
 30
0.0
 10
28.268463
 20
89.962975
 30
0.0
 10
28.487500
 20
88.891516
 30
0.0
 10
28.517878
 20
87.909733
 30
0.0
 10
28.394376
 20
87.019110
 30
0.0
 10
28.120315
 20
86.218564
 30
0.0
 10
27.699014
 20
85.507009
 30
0.0
 10
27.133793
 20
84.883361
 30
0.0
 10
26.427973
 20
84.346536
 30
0.0
 10
25.584873
 20
83.895450
 30
0.0
 10
24.607813
 20
83.529016
 30
0.0
 10
23.355580
 20
83.268402
 30
0.0
 10
22.050712
 20
83.231663
 30
0.0
 10
20.755253
 20
83.411569
 30
0.0
 10
19.531250
 20
83.800891
 30
0.0
 10
18.444165
 20
84.378390
 30
0.0
 10
17.538493
 20
85.122574
 30
0.0
 10
16.844825
 20
86.025839
 30
0.0
 10
16.393750
 20
87.080579
 30
0.0
 10
16.206050
 20
88.257989
 30
0.0
 10
16.290241
 20
89.432226
 30
0.0
 10
16.627006
 20
90.561341
 30
0.0
 10
17.197032
 20
91.603383
 30
0.0
 10
17.981003
 20
92.516403
 30
0.0
 10
18.959605
 20
93.258451
 30
0.0
 10
20.113521
 20
93.787576
 30
0.0
 10
21.423438
 20
94.061829
 30
0.0
 10
22.134375
 20
94.099329
 30
0.0
 10
22.134375
 20
94.099329
 30
0.0
  0
LWPOLYLINE
  5
105
100
AcDbEntity
  8
dued
 62
7
100
AcDbPolyline
 90
35
 70
0
 10
51.445313
 20
93.683704
 30
0.0
 10
52.708196
 20
93.589611
 30
0.0
 10
53.867393
 20
93.297436
 30
0.0
 10
54.907756
 20
92.826666
 30
0.0
 10
55.814137
 20
92.196787
 30
0.0
 10
56.571388
 20
91.427284
 30
0.0
 10
57.164360
 20
90.537643
 30
0.0
 10
57.577905
 20
89.547350
 30
0.0
 10
57.796875
 20
88.475891
 30
0.0
 10
57.827253
 20
87.494108
 30
0.0
 10
57.703751
 20
86.603486
 30
0.0
 10
57.429690
 20
85.802939
 30
0.0
 10
57.008389
 20
85.091385
 30
0.0
 10
56.443168
 20
84.467737
 30
0.0
 10
55.737348
 20
83.930912
 30
0.0
 10
54.894248
 20
83.479825
 30
0.0
 10
53.917187
 20
83.113391
 30
0.0
 10
52.664955
 20
82.852778
 30
0.0
 10
51.360087
 20
82.816038
 30
0.0
 10
50.064629
 20
82.995944
 30
0.0
 10
48.840625
 20
83.385267
 30
0.0
 10
47.753540
 20
83.962765
 30
0.0
 10
46.847868
 20
84.706949
 30
0.0
 10
46.154200
 20
85.610214
 30
0.0
 10
45.703125
 20
86.664954
 30
0.0
 10
45.515492
 20
87.842364
 30
0.0
 10
45.599860
 20
89.016602
 30
0.0
 10
45.936876
 20
90.145716
 30
0.0
 10
46.507189
 20
91.187758
 30
0.0
 10
47.291447
 20
92.100778
 30
0.0
 10
48.270298
 20
92.842825
 30
0.0
 10
49.424392
 20
93.371951
 30
0.0
 10
50.734375
 20
93.646204
 30
0.0
 10
51.445313
 20
93.683704
 30
0.0
 10
51.445313
 20
93.683704
 30
0.0
  0
LWPOLYLINE
  5
106
100
AcDbEntity
  8
dued
 62
7
100
AcDbPolyline
 90
58
 70
0
 10
24.695313
 20
74.827454
 30
0.0
 10
24.246875
 20
74.814954
 30
0.0
 10
22.487689
 20
74.586364
 30
0.0
 10
20.969802
 20
74.086032
 30
0.0
 10
19.708420
 20
73.341176
 30
0.0
 10
18.718750
 20
72.379016
 30
0.0
 10
18.015169
 20
71.261536
 30
0.0
 10
17.575134
 20
70.061590
 30
0.0
 10
17.358470
 20
68.822700
 30
0.0
 10
17.325000
 20
67.588391
 30
0.0
 10
17.468890
 20
66.333302
 30
0.0
 10
17.810649
 20
65.088989
 30
0.0
 10
18.353833
 20
63.869568
 30
0.0
 10
19.101999
 20
62.689157
 30
0.0
 10
20.058704
 20
61.561873
 30
0.0
 10
21.227506
 20
60.501833
 30
0.0
 10
22.611960
 20
59.523154
 30
0.0
 10
24.215625
 20
58.639954
 30
0.0
 10
27.372516
 20
57.329111
 30
0.0
 10
30.406898
 20
56.505614
 30
0.0
 10
33.600331
 20
56.018428
 30
0.0
 10
37.234375
 20
55.716516
 30
0.0
 10
40.586907
 20
55.582858
 30
0.0
 10
43.767962
 20
55.674160
 30
0.0
 10
46.834958
 20
56.046796
 30
0.0
 10
49.845313
 20
56.757142
 30
0.0
 10
51.343949
 20
57.285302
 30
0.0
 10
52.743111
 20
57.944231
 30
0.0
 10
54.027023
 20
58.730760
 30
0.0
 10
55.179908
 20
59.641720
 30
0.0
 10
56.185988
 20
60.673944
 30
0.0
 10
57.029485
 20
61.824263
 30
0.0
 10
57.694623
 20
63.089510
 30
0.0
 10
58.165625
 20
64.466516
 30
0.0
 10
58.421417
 20
65.957179
 30
0.0
 10
58.424390
 20
67.489270
 30
0.0
 10
58.150716
 20
69.013500
 30
0.0
 10
57.576563
 20
70.480579
 30
0.0
 10
56.666355
 20
71.821935
 30
0.0
 10
55.414360
 20
72.951992
 30
0.0
 10
53.841514
 20
73.795951
 30
0.0
 10
51.968751
 20
74.279016
 30
0.0
 10
50.136135
 20
74.370101
 30
0.0
 10
48.498529
 20
74.176208
 30
0.0
 10
46.982362
 20
73.804422
 30
0.0
 10
45.514063
 20
73.361829
 30
0.0
 10
43.979673
 20
72.934619
 30
0.0
 10
42.221714
 20
72.585606
 30
0.0
 10
40.101335
 20
72.386814
 30
0.0
 10
37.479687
 20
72.410267
 30
0.0
 10
34.867892
 20
72.636113
 30
0.0
 10
32.843275
 20
72.965820
 30
0.0
 10
31.245849
 20
73.359938
 30
0.0
 10
29.915625
 20
73.779016
 30
0.0
 10
27.541233
 20
74.508154
 30
0.0
 10
26.215657
 20
74.747073
 30
0.0
 10
24.695313
 20
74.827454
 30
0.0
 10
24.695313
 20
74.827454
 30
0.0
  0
LWPOLYLINE
  5
107
100
AcDbEntity
  8
dued
 62
7
100
AcDbPolyline
 90
56
 70
0
 10
25.068751
 20
71.950891
 30
0.0
 10
26.110748
 20
71.871564
 30
0.0
 10
27.035202
 20
71.682751
 30
0.0
 10
29.003125
 20
71.050891
 30
0.0
 10
30.447154
 20
70.600967
 30
0.0
 10
32.242607
 20
70.161758
 30
0.0
 10
34.498398
 20
69.788991
 30
0.0
 10
37.323438
 20
69.538391
 30
0.0
 10
40.236484
 20
69.521112
 30
0.0
 10
42.657141
 20
69.754497
 30
0.0
 10
44.666024
 20
70.147017
 30
0.0
 10
46.343751
 20
70.607142
 30
0.0
 10
48.996070
 20
71.350847
 30
0.0
 10
50.222206
 20
71.501181
 30
0.0
 10
51.576563
 20
71.429016
 30
0.0
 10
52.822069
 20
71.127735
 30
0.0
 10
53.778671
 20
70.630500
 30
0.0
 10
54.494765
 20
69.966116
 30
0.0
 10
55.018751
 20
69.163391
 30
0.0
 10
55.372350
 20
68.240686
 30
0.0
 10
55.547700
 20
67.233496
 30
0.0
 10
55.548809
 20
66.196333
 30
0.0
 10
55.379687
 20
65.183704
 30
0.0
 10
55.049948
 20
64.213777
 30
0.0
 10
54.580095
 20
63.313429
 30
0.0
 10
53.973732
 20
62.485176
 30
0.0
 10
53.234460
 20
61.731535
 30
0.0
 10
52.365880
 20
61.055020
 30
0.0
 10
51.371595
 20
60.458147
 30
0.0
 10
50.255205
 20
59.943433
 30
0.0
 10
49.020313
 20
59.513391
 30
0.0
 10
46.330318
 20
58.878001
 30
0.0
 10
43.551393
 20
58.540985
 30
0.0
 10
40.607318
 20
58.458531
 30
0.0
 10
37.421875
 20
58.586829
 30
0.0
 10
33.933373
 20
58.867100
 30
0.0
 10
31.020376
 20
59.298141
 30
0.0
 10
28.320238
 20
60.034072
 30
0.0
 10
25.470313
 20
61.229016
 30
0.0
 10
24.126034
 20
61.958766
 30
0.0
 10
23.010890
 20
62.724365
 30
0.0
 10
22.108243
 20
63.519097
 30
0.0
 10
21.401449
 20
64.336244
 30
0.0
 10
20.873869
 20
65.169089
 30
0.0
 10
20.508862
 20
66.010915
 30
0.0
 10
20.289786
 20
66.855005
 30
0.0
 10
20.200000
 20
67.694642
 30
0.0
 10
20.355129
 20
69.310358
 30
0.0
 10
20.601886
 20
69.996895
 30
0.0
 10
20.965625
 20
70.582142
 30
0.0
 10
21.466993
 20
71.080121
 30
0.0
 10
22.163445
 20
71.493739
 30
0.0
 10
23.113330
 20
71.791012
 30
0.0
 10
24.375000
 20
71.939954
 30
0.0
 10
25.068751
 20
71.950891
 30
0.0
 10
25.068751
 20
71.950891
 30
0.0
  0
LWPOLYLINE
  5
108
100
AcDbEntity
  8
dued
 62
7
100
AcDbPolyline
 90
119
 70
0
 10
73.404688
 20
59.916516
 30
0.0
 10
74.780546
 20
58.324615
 30
0.0
 10
75.985257
 20
56.590194
 30
0.0
 10
76.993043
 20
54.717762
 30
0.0
 10
77.778125
 20
52.711829
 30
0.0
 10
78.615933
 20
49.368527
 30
0.0
 10
78.972347
 20
47.265228
 30
0.0
 10
79.242263
 20
44.946765
 30
0.0
 10
79.392053
 20
42.467586
 30
0.0
 10
79.388088
 20
39.882144
 30
0.0
 10
79.196738
 20
37.244887
 30
0.0
 10
78.784376
 20
34.610266
 30
0.0
 10
78.176563
 20
32.091516
 30
0.0
 10
77.607813
 20
32.552454
 30
0.0
 10
76.799480
 20
32.957586
 30
0.0
 10
75.901563
 20
33.194641
 30
0.0
 10
75.646915
 20
35.281460
 30
0.0
 10
75.283262
 20
37.316978
 30
0.0
 10
74.797119
 20
39.271405
 30
0.0
 10
74.175000
 20
41.114954
 30
0.0
 10
73.277081
 20
43.212573
 30
0.0
 10
72.135432
 20
45.340663
 30
0.0
 10
70.678801
 20
47.394570
 30
0.0
 10
69.810101
 20
48.361001
 30
0.0
 10
68.835938
 20
49.269642
 30
0.0
 10
68.407286
 20
49.529153
 30
0.0
 10
67.915625
 20
49.625891
 30
0.0
 10
67.471922
 20
49.565173
 30
0.0
 10
67.076808
 20
49.376525
 30
0.0
 10
66.756622
 20
49.077888
 30
0.0
 10
66.537701
 20
48.687205
 30
0.0
 10
66.449355
 20
48.248167
 30
0.0
 10
66.497802
 20
47.813016
 30
0.0
 10
66.674742
 20
47.412522
 30
0.0
 10
66.971876
 20
47.077454
 30
0.0
 10
68.461085
 20
45.555791
 30
0.0
 10
69.681015
 20
43.828753
 30
0.0
 10
70.677234
 20
41.973722
 30
0.0
 10
71.495313
 20
40.068079
 30
0.0
 10
72.016241
 20
38.515528
 30
0.0
 10
72.436563
 20
36.817042
 30
0.0
 10
73.003125
 20
33.118079
 30
0.0
 10
71.702806
 20
32.487668
 30
0.0
 10
70.643751
 20
31.543079
 30
0.0
 10
70.009748
 20
30.677348
 30
0.0
 10
69.491297
 20
29.719158
 30
0.0
 10
68.734376
 20
27.588391
 30
0.0
 10
68.697925
 20
27.018332
 30
0.0
 10
68.876684
 20
26.496647
 30
0.0
 10
69.238010
 20
26.080050
 30
0.0
 10
69.749257
 20
25.825251
 30
0.0
 10
70.319313
 20
25.788742
 30
0.0
 10
70.841016
 20
25.967449
 30
0.0
 10
71.257650
 20
26.328732
 30
0.0
 10
71.512500
 20
26.839954
 30
0.0
 10
72.104760
 20
28.494956
 30
0.0
 10
72.829688
 20
29.671204
 30
0.0
 10
73.225000
 20
30.064954
 30
0.0
 10
73.246876
 20
26.572766
 30
0.0
 10
73.424413
 20
25.823390
 30
0.0
 10
73.963046
 20
25.272972
 30
0.0
 10
74.708405
 20
25.079258
 30
0.0
 10
75.446876
 20
25.297766
 30
0.0
 10
74.010286
 20
22.938409
 30
0.0
 10
72.351519
 20
20.752421
 30
0.0
 10
70.466993
 20
18.763324
 30
0.0
 10
68.353125
 20
16.994642
 30
0.0
 10
66.188910
 20
15.590469
 30
0.0
 10
63.880973
 20
14.441225
 30
0.0
 10
61.472516
 20
13.526989
 30
0.0
 10
59.006735
 20
12.827840
 30
0.0
 10
56.526832
 20
12.323858
 30
0.0
 10
54.076005
 20
11.995122
 30
0.0
 10
51.697453
 20
11.821710
 30
0.0
 10
49.434375
 20
11.783704
 30
0.0
 10
44.915886
 20
12.009506
 30
0.0
 10
42.627915
 20
12.291615
 30
0.0
 10
40.349204
 20
12.717532
 30
0.0
 10
38.101061
 20
13.310509
 30
0.0
 10
35.904795
 20
14.093800
 30
0.0
 10
33.781713
 20
15.090655
 30
0.0
 10
31.753125
 20
16.324329
 30
0.0
 10
29.813045
 20
17.773321
 30
0.0
 10
28.033893
 20
19.324427
 30
0.0
 10
26.417829
 20
20.957538
 30
0.0
 10
24.967010
 20
22.652543
 30
0.0
 10
23.683597
 20
24.389335
 30
0.0
 10
22.569747
 20
26.147803
 30
0.0
 10
21.627620
 20
27.907837
 30
0.0
 10
20.859375
 20
29.649329
 30
0.0
 10
19.656240
 20
33.368169
 30
0.0
 10
18.779489
 20
37.378380
 30
0.0
 10
18.211041
 20
41.398675
 30
0.0
 10
17.932813
 20
45.147766
 30
0.0
 10
17.994357
 20
48.336083
 30
0.0
 10
18.306250
 20
50.824329
 30
0.0
 10
20.893461
 20
49.447721
 30
0.0
 10
23.483981
 20
48.309745
 30
0.0
 10
26.051809
 20
47.388385
 30
0.0
 10
28.570947
 20
46.661624
 30
0.0
 10
31.015397
 20
46.107448
 30
0.0
 10
33.359159
 20
45.703841
 30
0.0
 10
37.640625
 20
45.260266
 30
0.0
 10
40.226796
 20
45.133741
 30
0.0
 10
43.282572
 20
45.103050
 30
0.0
 10
46.716338
 20
45.260310
 30
0.0
 10
50.436478
 20
45.697636
 30
0.0
 10
54.351373
 20
46.507147
 30
0.0
 10
56.353225
 20
47.080259
 30
0.0
 10
58.369410
 20
47.780959
 30
0.0
 10
60.388475
 20
48.620765
 30
0.0
 10
62.398970
 20
49.611189
 30
0.0
 10
64.389442
 20
50.763747
 30
0.0
 10
66.348438
 20
52.089954
 30
0.0
 10
68.496558
 20
53.848187
 30
0.0
 10
70.376794
 20
55.759291
 30
0.0
 10
72.006914
 20
57.792366
 30
0.0
 10
73.404688
 20
59.916516
 30
0.0
 10
73.404688
 20
59.916516
 30
0.0
  0
LWPOLYLINE
  5
109
100
AcDbEntity
  8
dued
 62
7
100
AcDbPolyline
 90
7
 70
0
 10
76.109376
 20
30.075891
 30
0.0
 10
76.427631
 20
29.699602
 30
0.0
 10
76.859376
 20
28.955579
 30
0.0
 10
77.031250
 20
28.693079
 30
0.0
 10
76.125000
 20
26.641516
 30
0.0
 10
76.109376
 20
30.075891
 30
0.0
 10
76.109376
 20
30.075891
 30
0.0
  0
LWPOLYLINE
  5
10a
100
AcDbEntity
  8
fill
 62
7
100
AcDbPolyline
 90
21
 70
0
 10
44.800000
 20
111.799329
 30
0.0
 10
17.400000
 20
109.599329
 30
0.0
 10
5.600000
 20
100.399329
 30
0.0
 10
1.800000
 20
84.599329
 30
0.0
 10
5.000000
 20
66.599329
 30
0.0
 10
15.600000
 20
53.999329
 30
0.0
 10
16.600000
 20
52.599329
 30
0.0
 10
17.200000
 20
38.799329
 30
0.0
 10
21.000000
 20
25.399329
 30
0.0
 10
32.800000
 20
13.599329
 30
0.0
 10
48.800000
 20
9.799329
 30
0.0
 10
59.200000
 20
10.599329
 30
0.0
 10
75.200000
 20
21.199329
 30
0.0
 10
81.000000
 20
35.399329
 30
0.0
 10
79.200000
 20
54.599329
 30
0.0
 10
73.600000
 20
61.599329
 30
0.0
 10
77.000000
 20
77.799329
 30
0.0
 10
75.000000
 20
92.399329
 30
0.0
 10
66.000000
 20
104.599329
 30
0.0
 10
44.800000
 20
111.799329
 30
0.0
 10
44.800000
 20
111.799329
 30
0.0
  0
LWPOLYLINE
  5
10b
100
AcDbEntity
  8
fill
 62
7
100
AcDbPolyline
 90
10
 70
0
 10
22.273438
 20
95.883704
 30
0.0
 10
29.557813
 20
91.358704
 30
0.0
 10
29.768750
 20
85.700891
 30
0.0
 10
25.668750
 20
82.449329
 30
0.0
 10
20.010938
 20
82.094642
 30
0.0
 10
16.264062
 20
84.499329
 30
0.0
 10
15.060938
 20
90.014954
 30
0.0
 10
17.395313
 20
93.550891
 30
0.0
 10
22.273438
 20
95.883704
 30
0.0
 10
22.273438
 20
95.883704
 30
0.0
  0
LWPOLYLINE
  5
10c
100
AcDbEntity
  8
fill
 62
7
100
AcDbPolyline
 90
7
 70
0
 10
15.575000
 20
43.799329
 30
0.0
 10
12.650000
 20
41.224329
 30
0.0
 10
11.400000
 20
34.024329
 30
0.0
 10
16.900000
 20
28.999329
 30
0.0
 10
18.400000
 20
29.374329
 30
0.0
 10
15.575000
 20
43.799329
 30
0.0
 10
15.575000
 20
43.799329
 30
0.0
  0
ENDSEC
  0
SECTION
  2
OBJECTS
  0
DICTIONARY
  5
C
330
0
100
AcDbDictionary
  3
ACAD_GROUP
350
D
  3
ACAD_MLINESTYLE
350
17
  0
DICTIONARY
  5
D
330
C
100
AcDbDictionary
  0
DICTIONARY
  5
1A
330
C
100
AcDbDictionary
  0
DICTIONARY
  5
17
330
C
100
AcDbDictionary
  3
STANDARD
350
18
  0
DICTIONARY
  5
19
330
C
100
AcDbDictionary
  0
ENDSEC
  0
EOF
