  0
SECTION
  2
HEADER
  9
$ACADVER
  1
AC1014
  9
$HANDSEED
  5
FFFF
  9
$MEASUREMENT
 70
     1
  0
ENDSEC
  0
SECTION
  2
TABLES
  0
TABLE
  2
VPORT
  5
8
330
0
100
AcDbSymbolTable
 70
     4
  0
VPORT
  5
2E
330
8
100
AcDbSymbolTableRecord
100
AcDbViewportTableRecord
  2
*ACTIVE
 70
     0
 10
0.0
 20
0.0
 11
1.0
 21
1.0
 12
210.0
 22
148.5
 13
0.0
 23
0.0
 14
10.0
 24
10.0
 15
10.0
 25
10.0
 16
0.0
 26
0.0
 36
1.0
 17
0.0
 27
0.0
 37
0.0
 40
341.0
 41
1.24
 42
50.0
 43
0.0
 44
0.0
 50
0.0
 51
0.0
 71
     0
 72
   100
 73
     1
 74
     3
 75
     0
 76
     0
 77
     0
 78
     0
  0
ENDTAB
  0
TABLE
  2
LTYPE
  5
5
330
0
100
AcDbSymbolTable
 70
     1
  0
LTYPE
  5
14
330
5
100
AcDbSymbolTableRecord
100
AcDbLinetypeTableRecord
  2
BYBLOCK
 70
     0
  3

 72
    65
 73
     0
 40
0.0
  0
LTYPE
  5
15
330
5
100
AcDbSymbolTableRecord
100
AcDbLinetypeTableRecord
  2
BYLAYER
 70
     0
  3

 72
    65
 73
     0
 40
0.0
  0
LTYPE
  5
16
330
5
100
AcDbSymbolTableRecord
100
AcDbLinetypeTableRecord
  2
CONTINUOUS
 70
     0
  3
Solid line
 72
    65
 73
     0
 40
0.0
  0
ENDTAB
  0
TABLE
  2
LAYER
  5
2
100
AcDbSymbolTable
 70
3
  0
LAYER
  5
50
100
AcDbSymbolTableRecord
100
AcDbLayerTableRecord
  2
0
 70
0
  6
CONTINUOUS
  0
LAYER
  5
51
100
AcDbSymbolTableRecord
100
AcDbLayerTableRecord
  2
dued
 70
0
  6
CONTINUOUS
  0
LAYER
  5
52
100
AcDbSymbolTableRecord
100
AcDbLayerTableRecord
  2
fill
 70
0
  6
CONTINUOUS
  0
ENDTAB
  0
TABLE
  2
STYLE
  5
3
330
0
100
AcDbSymbolTable
 70
     1
  0
STYLE
  5
11
330
3
100
AcDbSymbolTableRecord
100
AcDbTextStyleTableRecord
  2
STANDARD
 70
     0
 40
0.0
 41
1.0
 50
0.0
 71
     0
 42
2.5
  3
txt
  4

  0
ENDTAB
  0
TABLE
  2
VIEW
  5
6
330
0
100
AcDbSymbolTable
 70
     0
  0
ENDTAB
  0
TABLE
  2
UCS
  5
7
330
0
100
AcDbSymbolTable
 70
     0
  0
ENDTAB
  0
TABLE
  2
APPID
  5
9
330
0
100
AcDbSymbolTable
 70
     2
  0
APPID
  5
12
330
9
100
AcDbSymbolTableRecord
100
AcDbRegAppTableRecord
  2
ACAD
 70
     0
  0
ENDTAB
  0
TABLE
  2
DIMSTYLE
  5
A
330
0
100
AcDbSymbolTable
 70
     1
  0
DIMSTYLE
105
27
330
A
100
AcDbSymbolTableRecord
100
AcDbDimStyleTableRecord
  2
ISO-25
 70
     0
  3

  4

  5

  6

  7

 40
1.0
 41
2.5
 42
0.625
 43
3.75
 44
1.25
 45
0.0
 46
0.0
 47
0.0
 48
0.0
140
2.5
141
2.5
142
0.0
143
0.03937007874016
144
1.0
145
0.0
146
1.0
147
0.625
 71
     0
 72
     0
 73
     0
 74
     0
 75
     0
 76
     0
 77
     1
 78
     8
170
     0
171
     3
172
     1
173
     0
174
     0
175
     0
176
     0
177
     0
178
     0
270
     2
271
     2
272
     2
273
     2
274
     3
340
11
275
     0
280
     0
281
     0
282
     0
283
     0
284
     8
285
     0
286
     0
287
     3
288
     0
  0
ENDTAB
  0
TABLE
  2
BLOCK_RECORD
  5
1
330
0
100
AcDbSymbolTable
 70
     1
  0
BLOCK_RECORD
  5
1F
330
1
100
AcDbSymbolTableRecord
100
AcDbBlockTableRecord
  2
*MODEL_SPACE
  0
BLOCK_RECORD
  5
1B
330
1
100
AcDbSymbolTableRecord
100
AcDbBlockTableRecord
  2
*PAPER_SPACE
  0
ENDTAB
  0
ENDSEC
  0
SECTION
  2
BLOCKS
  0
BLOCK
  5
20
330
1F
100
AcDbEntity
  8
0
100
AcDbBlockBegin
  2
*MODEL_SPACE
 70
     0
 10
0.0
 20
0.0
 30
0.0
  3
*MODEL_SPACE
  1

  0
ENDBLK
  5
21
330
1F
100
AcDbEntity
  8
0
100
AcDbBlockEnd
  0
BLOCK
  5
1C
330
1B
100
AcDbEntity
 67
     1
  8
0
100
AcDbBlockBegin
  2
*PAPER_SPACE
  1

  0
ENDBLK
  5
1D
330
1B
100
AcDbEntity
 67
     1
  8
0
100
AcDbBlockEnd
  0
ENDSEC
  0
SECTION
  2
ENTITIES
  0
LWPOLYLINE
  5
100
100
AcDbEntity
  8
dued
 62
7
100
AcDbPolyline
 90
194
 70
0
 10
12.343981
 20
39.971163
 30
0.0
 10
11.241686
 20
39.930972
 30
0.0
 10
10.123715
 20
39.847284
 30
0.0
 10
9.003320
 20
39.709481
 30
0.0
 10
7.893756
 20
39.506921
 30
0.0
 10
6.808275
 20
39.228981
 30
0.0
 10
5.760132
 20
38.865018
 30
0.0
 10
4.762580
 20
38.404406
 30
0.0
 10
3.828872
 20
37.836507
 30
0.0
 10
3.322792
 20
37.457206
 30
0.0
 10
2.857918
 20
37.053792
 30
0.0
 10
2.433131
 20
36.626601
 30
0.0
 10
2.047313
 20
36.175985
 30
0.0
 10
1.699344
 20
35.702281
 30
0.0
 10
1.388107
 20
35.205832
 30
0.0
 10
0.871354
 20
34.146057
 30
0.0
 10
0.488104
 20
32.999388
 30
0.0
 10
0.229409
 20
31.768566
 30
0.0
 10
0.086323
 20
30.456317
 30
0.0
 10
0.049895
 20
29.065382
 30
0.0
 10
0.082685
 20
28.325757
 30
0.0
 10
0.165188
 20
27.580337
 30
0.0
 10
0.295087
 20
26.832900
 30
0.0
 10
0.470070
 20
26.087227
 30
0.0
 10
0.946028
 20
24.616296
 30
0.0
 10
1.574542
 20
23.197779
 30
0.0
 10
2.337096
 20
21.861920
 30
0.0
 10
3.215174
 20
20.638949
 30
0.0
 10
3.691747
 20
20.079254
 30
0.0
 10
4.190258
 20
19.559116
 30
0.0
 10
4.708391
 20
19.082324
 30
0.0
 10
5.243832
 20
18.652649
 30
0.0
 10
5.706824
 20
18.326110
 30
0.0
 10
5.578877
 20
17.510744
 30
0.0
 10
5.508213
 20
16.394897
 30
0.0
 10
5.235489
 20
16.183967
 30
0.0
 10
4.975618
 20
15.924382
 30
0.0
 10
4.731245
 20
15.617081
 30
0.0
 10
4.505016
 20
15.263017
 30
0.0
 10
4.117568
 20
14.418368
 30
0.0
 10
3.834440
 20
13.397965
 30
0.0
 10
3.561546
 20
11.909751
 30
0.0
 10
3.175808
 20
11.817097
 30
0.0
 10
2.824667
 20
11.672571
 30
0.0
 10
2.512131
 20
11.479080
 30
0.0
 10
2.242211
 20
11.239473
 30
0.0
 10
1.965951
 20
10.887344
 30
0.0
 10
1.751116
 20
10.493052
 30
0.0
 10
1.587531
 20
10.064074
 30
0.0
 10
1.465019
 20
9.608003
 30
0.0
 10
1.460395
 20
9.406101
 30
0.0
 10
1.531092
 20
9.224406
 30
0.0
 10
1.664758
 20
9.082449
 30
0.0
 10
1.849043
 20
8.999814
 30
0.0
 10
2.050947
 20
8.995298
 30
0.0
 10
2.232668
 20
9.065939
 30
0.0
 10
2.374641
 20
9.199599
 30
0.0
 10
2.457306
 20
9.383890
 30
0.0
 10
2.677430
 20
10.066924
 30
0.0
 10
2.819283
 20
10.330887
 30
0.0
 10
2.981639
 20
10.540860
 30
0.0
 10
3.179441
 20
10.711915
 30
0.0
 10
3.418742
 20
10.836065
 30
0.0
 10
3.355886
 20
9.871768
 30
0.0
 10
3.373711
 20
8.940039
 30
0.0
 10
3.455970
 20
8.687394
 30
0.0
 10
3.654381
 20
8.510723
 30
0.0
 10
3.914814
 20
8.458173
 30
0.0
 10
4.166218
 20
8.544082
 30
0.0
 10
4.340004
 20
8.745052
 30
0.0
 10
4.388762
 20
9.006192
 30
0.0
 10
4.373590
 20
9.915936
 30
0.0
 10
4.444636
 20
10.881982
 30
0.0
 10
4.742384
 20
10.745104
 30
0.0
 10
4.975954
 20
10.533946
 30
0.0
 10
5.126917
 20
10.321150
 30
0.0
 10
5.249440
 20
10.069154
 30
0.0
 10
5.402919
 20
9.488482
 30
0.0
 10
5.505341
 20
9.243598
 30
0.0
 10
5.717195
 20
9.083606
 30
0.0
 10
5.980784
 20
9.052166
 30
0.0
 10
6.224316
 20
9.157830
 30
0.0
 10
6.381464
 20
9.371755
 30
0.0
 10
6.409424
 20
9.635717
 30
0.0
 10
6.327206
 20
10.046774
 30
0.0
 10
6.194581
 20
10.452779
 30
0.0
 10
6.003133
 20
10.841455
 30
0.0
 10
5.744445
 20
11.200498
 30
0.0
 10
5.511805
 20
11.428844
 30
0.0
 10
5.238992
 20
11.622787
 30
0.0
 10
4.929534
 20
11.776796
 30
0.0
 10
4.586963
 20
11.885056
 30
0.0
 10
4.831332
 20
13.195950
 30
0.0
 10
4.972702
 20
13.745606
 30
0.0
 10
5.152036
 20
14.227586
 30
0.0
 10
5.356631
 20
14.641803
 30
0.0
 10
5.573781
 20
14.988214
 30
0.0
 10
5.723711
 20
13.728955
 30
0.0
 10
5.960079
 20
12.421928
 30
0.0
 10
6.290972
 20
11.124496
 30
0.0
 10
6.724475
 20
9.894092
 30
0.0
 10
7.039152
 20
9.210662
 30
0.0
 10
7.419059
 20
8.526697
 30
0.0
 10
7.863530
 20
7.848912
 30
0.0
 10
8.371899
 20
7.184081
 30
0.0
 10
8.943498
 20
6.538977
 30
0.0
 10
9.577663
 20
5.920318
 30
0.0
 10
10.273727
 20
5.334820
 30
0.0
 10
11.031022
 20
4.789341
 30
0.0
 10
12.017910
 20
4.227888
 30
0.0
 10
11.815915
 20
3.569858
 30
0.0
 10
11.603613
 20
2.678544
 30
0.0
 10
11.453428
 20
1.645808
 30
0.0
 10
11.424263
 20
1.105127
 30
0.0
 10
11.437787
 20
0.563486
 30
0.0
 10
11.519074
 20
0.308216
 30
0.0
 10
11.718815
 20
0.129598
 30
0.0
 10
11.981590
 20
0.077330
 30
0.0
 10
12.234491
 20
0.165807
 30
0.0
 10
12.407348
 20
0.370503
 30
0.0
 10
12.452202
 20
0.634663
 30
0.0
 10
12.469321
 20
1.517143
 30
0.0
 10
12.600347
 20
2.405833
 30
0.0
 10
12.785654
 20
3.207316
 30
0.0
 10
12.965618
 20
3.828205
 30
0.0
 10
14.206357
 20
3.468033
 30
0.0
 10
15.455015
 20
3.249423
 30
0.0
 10
16.687251
 20
3.142828
 30
0.0
 10
17.878721
 20
3.118839
 30
0.0
 10
19.095530
 20
3.172066
 30
0.0
 10
20.390661
 20
3.333921
 30
0.0
 10
21.721669
 20
3.629718
 30
0.0
 10
22.387364
 20
3.835655
 30
0.0
 10
23.046111
 20
4.084575
 30
0.0
 10
23.234349
 20
2.524705
 30
0.0
 10
23.299642
 20
1.561904
 30
0.0
 10
23.306749
 20
0.599498
 30
0.0
 10
23.366242
 20
0.342986
 30
0.0
 10
23.546033
 20
0.150595
 30
0.0
 10
23.797938
 20
0.073859
 30
0.0
 10
24.054445
 20
0.133408
 30
0.0
 10
24.246812
 20
0.313212
 30
0.0
 10
24.323484
 20
0.565180
 30
0.0
 10
24.309694
 20
1.805123
 30
0.0
 10
24.218477
 20
2.975724
 30
0.0
 10
24.006489
 20
4.544908
 30
0.0
 10
24.588891
 20
4.890009
 30
0.0
 10
25.148974
 20
5.282919
 30
0.0
 10
25.927819
 20
5.951560
 30
0.0
 10
26.622059
 20
6.692224
 30
0.0
 10
27.233527
 20
7.496727
 30
0.0
 10
27.764050
 20
8.356968
 30
0.0
 10
28.215460
 20
9.264877
 30
0.0
 10
28.589585
 20
10.212241
 30
0.0
 10
28.888258
 20
11.190903
 30
0.0
 10
29.113305
 20
12.192820
 30
0.0
 10
29.257924
 20
13.214182
 30
0.0
 10
29.318117
 20
14.222477
 30
0.0
 10
29.306489
 20
15.201715
 30
0.0
 10
29.235713
 20
16.135823
 30
0.0
 10
29.118396
 20
17.008807
 30
0.0
 10
28.967168
 20
17.804651
 30
0.0
 10
28.613501
 20
19.100852
 30
0.0
 10
28.238752
 20
19.998928
 30
0.0
 10
27.759077
 20
20.823836
 30
0.0
 10
27.189506
 20
21.573443
 30
0.0
 10
26.545066
 20
22.245629
 30
0.0
 10
26.884108
 20
23.089073
 30
0.0
 10
27.151525
 20
23.927781
 30
0.0
 10
27.354741
 20
24.748768
 30
0.0
 10
27.501176
 20
25.539041
 30
0.0
 10
27.653399
 20
26.975484
 30
0.0
 10
27.667575
 20
28.133180
 30
0.0
 10
27.553734
 20
29.861427
 30
0.0
 10
27.412782
 20
30.848727
 30
0.0
 10
27.181002
 20
31.885886
 30
0.0
 10
26.832291
 20
32.948692
 30
0.0
 10
26.340544
 20
34.012955
 30
0.0
 10
26.032874
 20
34.538069
 30
0.0
 10
25.679655
 20
35.054468
 30
0.0
 10
25.277626
 20
35.559129
 30
0.0
 10
24.823522
 20
36.049033
 30
0.0
 10
24.309742
 20
36.521089
 30
0.0
 10
23.746773
 20
36.962248
 30
0.0
 10
23.140364
 20
37.372653
 30
0.0
 10
22.496262
 20
37.752445
 30
0.0
 10
21.117983
 20
38.420761
 30
0.0
 10
19.657929
 20
38.968334
 30
0.0
 10
18.162093
 20
39.396313
 30
0.0
 10
16.676468
 20
39.705832
 30
0.0
 10
15.247048
 20
39.898036
 30
0.0
 10
13.919827
 20
39.974070
 30
0.0
 10
12.343968
 20
39.971530
 30
0.0
 10
12.343968
 20
39.971530
 30
0.0
  0
LWPOLYLINE
  5
101
100
AcDbEntity
  8
dued
 62
7
100
AcDbPolyline
 90
76
 70
0
 10
12.679806
 20
38.956757
 30
0.0
 10
13.904841
 20
38.956193
 30
0.0
 10
15.141986
 20
38.879468
 30
0.0
 10
16.492099
 20
38.686106
 30
0.0
 10
17.904089
 20
38.380629
 30
0.0
 10
19.326865
 20
37.967538
 30
0.0
 10
20.709335
 20
37.451356
 30
0.0
 10
22.000408
 20
36.836586
 30
0.0
 10
22.595705
 20
36.493640
 30
0.0
 10
23.148993
 20
36.127739
 30
0.0
 10
23.653886
 20
35.739452
 30
0.0
 10
24.103998
 20
35.329338
 30
0.0
 10
24.506791
 20
34.894789
 30
0.0
 10
24.863806
 20
34.446533
 30
0.0
 10
25.451902
 20
33.518651
 30
0.0
 10
25.891079
 20
32.565192
 30
0.0
 10
26.204129
 20
31.605664
 30
0.0
 10
26.413846
 20
30.659577
 30
0.0
 10
26.543022
 20
29.746432
 30
0.0
 10
26.650924
 20
28.096999
 30
0.0
 10
26.646422
 20
27.274479
 30
0.0
 10
26.564863
 20
26.266133
 30
0.0
 10
26.380209
 20
25.125235
 30
0.0
 10
26.066431
 20
23.905059
 30
0.0
 10
25.597499
 20
22.658884
 30
0.0
 10
25.296718
 20
22.042694
 30
0.0
 10
24.947387
 20
21.439980
 30
0.0
 10
24.546254
 20
20.857398
 30
0.0
 10
24.090066
 20
20.301617
 30
0.0
 10
23.575569
 20
19.779286
 30
0.0
 10
22.999509
 20
19.297070
 30
0.0
 10
22.373839
 20
18.858398
 30
0.0
 10
21.735170
 20
18.475007
 30
0.0
 10
21.087293
 20
18.143329
 30
0.0
 10
20.433993
 20
17.859800
 30
0.0
 10
19.126280
 20
17.422965
 30
0.0
 10
17.842332
 20
17.136021
 30
0.0
 10
16.612453
 20
16.970478
 30
0.0
 10
15.466945
 20
16.897857
 30
0.0
 10
14.436112
 20
16.889672
 30
0.0
 10
13.550255
 20
16.917443
 30
0.0
 10
12.721886
 20
16.974347
 30
0.0
 10
11.826600
 20
17.081832
 30
0.0
 10
10.878721
 20
17.252026
 30
0.0
 10
9.892574
 20
17.497071
 30
0.0
 10
8.882482
 20
17.829091
 30
0.0
 10
7.862771
 20
18.260228
 30
0.0
 10
6.847763
 20
18.802605
 30
0.0
 10
5.851783
 20
19.468368
 30
0.0
 10
5.375628
 20
19.852562
 30
0.0
 10
4.910988
 20
20.285423
 30
0.0
 10
4.026627
 20
21.280141
 30
0.0
 10
3.219438
 20
22.418510
 30
0.0
 10
2.510161
 20
23.666536
 30
0.0
 10
1.919538
 20
24.990212
 30
0.0
 10
1.468307
 20
26.355541
 30
0.0
 10
1.177209
 20
27.728515
 30
0.0
 10
1.098191
 20
28.407243
 30
0.0
 10
1.066984
 20
29.075139
 30
0.0
 10
1.097396
 20
30.388011
 30
0.0
 10
1.221019
 20
31.601691
 30
0.0
 10
1.446596
 20
32.719762
 30
0.0
 10
1.782869
 20
33.745823
 30
0.0
 10
2.238581
 20
34.683464
 30
0.0
 10
2.822474
 20
35.536286
 30
0.0
 10
3.543290
 20
36.307870
 30
0.0
 10
4.409772
 20
37.001821
 30
0.0
 10
5.270776
 20
37.519307
 30
0.0
 10
6.211335
 20
37.940698
 30
0.0
 10
7.216353
 20
38.275027
 30
0.0
 10
8.270727
 20
38.531316
 30
0.0
 10
9.359358
 20
38.718601
 30
0.0
 10
10.467146
 20
38.845903
 30
0.0
 10
11.578992
 20
38.922244
 30
0.0
 10
12.679795
 20
38.956653
 30
0.0
 10
12.679795
 20
38.956653
 30
0.0
  0
LWPOLYLINE
  5
102
100
AcDbEntity
  8
dued
 62
7
100
AcDbPolyline
 90
36
 70
0
 10
7.710359
 20
34.092183
 30
0.0
 10
7.367601
 20
34.069323
 30
0.0
 10
6.688105
 20
33.914338
 30
0.0
 10
6.085865
 20
33.625137
 30
0.0
 10
5.572952
 20
33.223063
 30
0.0
 10
5.161435
 20
32.729462
 30
0.0
 10
4.863385
 20
32.165686
 30
0.0
 10
4.690873
 20
31.553075
 30
0.0
 10
4.655966
 20
30.912975
 30
0.0
 10
4.770737
 20
30.266740
 30
0.0
 10
4.887875
 20
29.953507
 30
0.0
 10
5.040574
 20
29.664893
 30
0.0
 10
5.437714
 20
29.163325
 30
0.0
 10
5.932268
 20
28.765651
 30
0.0
 10
6.494350
 20
28.475484
 30
0.0
 10
7.099058
 20
28.291664
 30
0.0
 10
7.728862
 20
28.213173
 30
0.0
 10
8.364928
 20
28.243819
 30
0.0
 10
8.988427
 20
28.387425
 30
0.0
 10
9.461251
 20
28.583626
 30
0.0
 10
9.886179
 20
28.842585
 30
0.0
 10
10.255882
 20
29.158620
 30
0.0
 10
10.563031
 20
29.526042
 30
0.0
 10
10.800297
 20
29.939168
 30
0.0
 10
10.960353
 20
30.392306
 30
0.0
 10
11.035868
 20
30.879778
 30
0.0
 10
11.019516
 20
31.395891
 30
0.0
 10
10.891623
 20
31.964535
 30
0.0
 10
10.659795
 20
32.485190
 30
0.0
 10
10.335178
 20
32.948766
 30
0.0
 10
9.928918
 20
33.346168
 30
0.0
 10
9.452160
 20
33.668305
 30
0.0
 10
8.916050
 20
33.906086
 30
0.0
 10
8.331735
 20
34.050414
 30
0.0
 10
7.710360
 20
34.092197
 30
0.0
 10
7.710360
 20
34.092197
 30
0.0
  0
LWPOLYLINE
  5
103
100
AcDbEntity
  8
dued
 62
7
100
AcDbPolyline
 90
36
 70
0
 10
18.074846
 20
34.118873
 30
0.0
 10
17.732641
 20
34.096013
 30
0.0
 10
17.053145
 20
33.941034
 30
0.0
 10
16.450905
 20
33.651829
 30
0.0
 10
15.937992
 20
33.249756
 30
0.0
 10
15.526476
 20
32.756157
 30
0.0
 10
15.228426
 20
32.192376
 30
0.0
 10
15.055913
 20
31.579768
 30
0.0
 10
15.021007
 20
30.939671
 30
0.0
 10
15.135777
 20
30.293430
 30
0.0
 10
15.252914
 20
29.980197
 30
0.0
 10
15.405614
 20
29.691585
 30
0.0
 10
15.802753
 20
29.190020
 30
0.0
 10
16.297308
 20
28.792346
 30
0.0
 10
16.859390
 20
28.502177
 30
0.0
 10
17.464012
 20
28.318354
 30
0.0
 10
18.093625
 20
28.239857
 30
0.0
 10
18.729502
 20
28.270503
 30
0.0
 10
19.352914
 20
28.414106
 30
0.0
 10
19.825739
 20
28.610307
 30
0.0
 10
20.250667
 20
28.869266
 30
0.0
 10
20.620370
 20
29.185298
 30
0.0
 10
20.927519
 20
29.552721
 30
0.0
 10
21.164786
 20
29.965846
 30
0.0
 10
21.324840
 20
30.418988
 30
0.0
 10
21.400356
 20
30.906459
 30
0.0
 10
21.384001
 20
31.422576
 30
0.0
 10
21.256109
 20
31.991214
 30
0.0
 10
21.024280
 20
32.511869
 30
0.0
 10
20.699663
 20
32.975444
 30
0.0
 10
20.293403
 20
33.372850
 30
0.0
 10
19.816645
 20
33.694981
 30
0.0
 10
19.280535
 20
33.932764
 30
0.0
 10
18.696221
 20
34.077090
 30
0.0
 10
18.074845
 20
34.118882
 30
0.0
 10
18.074845
 20
34.118882
 30
0.0
  0
LWPOLYLINE
  5
104
100
AcDbEntity
  8
dued
 62
7
100
AcDbPolyline
 90
35
 70
0
 10
7.732913
 20
33.075853
 30
0.0
 10
8.179974
 20
33.050058
 30
0.0
 10
8.591590
 20
32.953634
 30
0.0
 10
8.962276
 20
32.793360
 30
0.0
 10
9.286551
 20
32.576043
 30
0.0
 10
9.558929
 20
32.308482
 30
0.0
 10
9.773926
 20
31.997474
 30
0.0
 10
9.926060
 20
31.649818
 30
0.0
 10
10.009846
 20
31.272312
 30
0.0
 10
10.026401
 20
30.925393
 30
0.0
 10
9.988014
 20
30.609790
 30
0.0
 10
9.895865
 20
30.325146
 30
0.0
 10
9.751133
 20
30.071084
 30
0.0
 10
9.555000
 20
29.847251
 30
0.0
 10
9.308645
 20
29.653282
 30
0.0
 10
9.013248
 20
29.488809
 30
0.0
 10
8.669989
 20
29.353472
 30
0.0
 10
8.228819
 20
29.253918
 30
0.0
 10
7.767714
 20
29.233203
 30
0.0
 10
7.308652
 20
29.289134
 30
0.0
 10
6.873612
 20
29.419526
 30
0.0
 10
6.485863
 20
29.617251
 30
0.0
 10
6.161264
 20
29.874987
 30
0.0
 10
5.910674
 20
30.190216
 30
0.0
 10
5.744953
 20
30.560440
 30
0.0
 10
5.671619
 20
30.975586
 30
0.0
 10
5.694428
 20
31.391224
 30
0.0
 10
5.806799
 20
31.792405
 30
0.0
 10
6.002152
 20
32.164185
 30
0.0
 10
6.273909
 20
32.491619
 30
0.0
 10
6.615488
 20
32.759759
 30
0.0
 10
7.020308
 20
32.953662
 30
0.0
 10
7.481791
 20
33.058381
 30
0.0
 10
7.732913
 20
33.075879
 30
0.0
 10
7.732913
 20
33.075879
 30
0.0
  0
LWPOLYLINE
  5
105
100
AcDbEntity
  8
dued
 62
7
100
AcDbPolyline
 90
35
 70
0
 10
18.097954
 20
33.102546
 30
0.0
 10
18.544990
 20
33.076779
 30
0.0
 10
18.956543
 20
32.980349
 30
0.0
 10
19.327142
 20
32.820075
 30
0.0
 10
19.651315
 20
32.602761
 30
0.0
 10
19.923592
 20
32.335192
 30
0.0
 10
20.138501
 20
32.024186
 30
0.0
 10
20.290571
 20
31.676525
 30
0.0
 10
20.374333
 20
31.299022
 30
0.0
 10
20.390891
 20
30.952103
 30
0.0
 10
20.352505
 20
30.636499
 30
0.0
 10
20.260356
 20
30.351850
 30
0.0
 10
20.115624
 20
30.097793
 30
0.0
 10
19.919491
 20
29.873957
 30
0.0
 10
19.673135
 20
29.679989
 30
0.0
 10
19.377738
 20
29.515518
 30
0.0
 10
19.034479
 20
29.380179
 30
0.0
 10
18.593309
 20
29.280625
 30
0.0
 10
18.132204
 20
29.259910
 30
0.0
 10
17.673143
 20
29.315837
 30
0.0
 10
17.238103
 20
29.446227
 30
0.0
 10
16.850354
 20
29.643958
 30
0.0
 10
16.525754
 20
29.901691
 30
0.0
 10
16.275165
 20
30.216917
 30
0.0
 10
16.109444
 20
30.587139
 30
0.0
 10
16.036133
 20
31.002287
 30
0.0
 10
16.059004
 20
31.417927
 30
0.0
 10
16.171464
 20
31.819112
 30
0.0
 10
16.366920
 20
32.190897
 30
0.0
 10
16.638777
 20
32.518329
 30
0.0
 10
16.980444
 20
32.786468
 30
0.0
 10
17.385327
 20
32.980372
 30
0.0
 10
17.846833
 20
33.085096
 30
0.0
 10
18.097956
 20
33.102594
 30
0.0
 10
18.097956
 20
33.102594
 30
0.0
  0
LWPOLYLINE
  5
106
100
AcDbEntity
  8
dued
 62
7
100
AcDbPolyline
 90
58
 70
0
 10
8.752471
 20
26.277648
 30
0.0
 10
8.594004
 20
26.270564
 30
0.0
 10
7.973417
 20
26.179330
 30
0.0
 10
7.439747
 20
25.993450
 30
0.0
 10
6.998211
 20
25.722641
 30
0.0
 10
6.654024
 20
25.376616
 30
0.0
 10
6.411900
 20
24.977374
 30
0.0
 10
6.263438
 20
24.550541
 30
0.0
 10
6.194178
 20
24.111262
 30
0.0
 10
6.189659
 20
23.674687
 30
0.0
 10
6.247965
 20
23.231812
 30
0.0
 10
6.376161
 20
22.793925
 30
0.0
 10
6.575422
 20
22.366028
 30
0.0
 10
6.846921
 20
21.953137
 30
0.0
 10
7.191832
 20
21.560266
 30
0.0
 10
7.611330
 20
21.192426
 30
0.0
 10
8.106586
 20
20.854623
 30
0.0
 10
8.678778
 20
20.551878
 30
0.0
 10
9.802629
 20
20.107141
 30
0.0
 10
10.880282
 20
19.833978
 30
0.0
 10
12.012173
 20
19.680658
 30
0.0
 10
13.298740
 20
19.595449
 30
0.0
 10
14.484784
 20
19.568017
 30
0.0
 10
15.608873
 20
19.619145
 30
0.0
 10
16.690970
 20
19.769053
 30
0.0
 10
17.751041
 20
20.038022
 30
0.0
 10
18.277740
 20
20.233624
 30
0.0
 10
18.768495
 20
20.474874
 30
0.0
 10
19.217750
 20
20.760542
 30
0.0
 10
19.619944
 20
21.089438
 30
0.0
 10
19.969519
 20
21.460329
 30
0.0
 10
20.260914
 20
21.872009
 30
0.0
 10
20.488571
 20
22.323265
 30
0.0
 10
20.646932
 20
22.812879
 30
0.0
 10
20.728534
 20
23.341399
 30
0.0
 10
20.720508
 20
23.883074
 30
0.0
 10
20.614724
 20
24.420326
 30
0.0
 10
20.403048
 20
24.935602
 30
0.0
 10
20.073307
 20
25.404429
 30
0.0
 10
19.623982
 20
25.796535
 30
0.0
 10
19.062920
 20
26.085590
 30
0.0
 10
18.397962
 20
26.245274
 30
0.0
 10
17.749520
 20
26.266610
 30
0.0
 10
17.171710
 20
26.188355
 30
0.0
 10
16.637887
 20
26.047938
 30
0.0
 10
16.121407
 20
25.882762
 30
0.0
 10
15.581471
 20
25.722641
 30
0.0
 10
14.962030
 20
25.588833
 30
0.0
 10
14.213570
 20
25.505990
 30
0.0
 10
13.286574
 20
25.498737
 30
0.0
 10
12.361863
 20
25.563106
 30
0.0
 10
11.644128
 20
25.667681
 30
0.0
 10
11.077040
 20
25.797551
 30
0.0
 10
10.604270
 20
25.937835
 30
0.0
 10
9.760509
 20
26.181545
 30
0.0
 10
9.290450
 20
26.258163
 30
0.0
 10
8.752472
 20
26.277552
 30
0.0
 10
8.752472
 20
26.277552
 30
0.0
  0
LWPOLYLINE
  5
107
100
AcDbEntity
  8
dued
 62
7
100
AcDbPolyline
 90
56
 70
0
 10
8.901536
 20
25.262884
 30
0.0
 10
9.270394
 20
25.241011
 30
0.0
 10
9.598343
 20
25.179735
 30
0.0
 10
10.297825
 20
24.968004
 30
0.0
 10
10.811012
 20
24.817495
 30
0.0
 10
11.448377
 20
24.672850
 30
0.0
 10
12.248097
 20
24.554427
 30
0.0
 10
13.248346
 20
24.482562
 30
0.0
 10
14.278325
 20
24.493710
 30
0.0
 10
15.132741
 20
24.590560
 30
0.0
 10
15.840635
 20
24.741233
 30
0.0
 10
16.431053
 20
24.913843
 30
0.0
 10
17.364347
 20
25.192483
 30
0.0
 10
17.796944
 20
25.252896
 30
0.0
 10
18.276190
 20
25.235398
 30
0.0
 10
18.718311
 20
25.136265
 30
0.0
 10
19.059453
 20
24.966135
 30
0.0
 10
19.316556
 20
24.735495
 30
0.0
 10
19.506561
 20
24.454802
 30
0.0
 10
19.637038
 20
24.130681
 30
0.0
 10
19.704998
 20
23.775643
 30
0.0
 10
19.711540
 20
23.408969
 30
0.0
 10
19.657747
 20
23.049962
 30
0.0
 10
19.546917
 20
22.705104
 30
0.0
 10
19.386139
 20
22.384011
 30
0.0
 10
19.176672
 20
22.087596
 30
0.0
 10
18.919775
 20
21.816778
 30
0.0
 10
18.616705
 20
21.572456
 30
0.0
 10
18.268721
 20
21.355548
 30
0.0
 10
17.877083
 20
21.166962
 30
0.0
 10
17.443047
 20
21.007608
 30
0.0
 10
16.495791
 20
20.767041
 30
0.0
 10
15.515327
 20
20.631431
 30
0.0
 10
14.474968
 20
20.584839
 30
0.0
 10
13.348028
 20
20.611339
 30
0.0
 10
12.113044
 20
20.689760
 30
0.0
 10
11.080631
 20
20.824894
 30
0.0
 10
10.121666
 20
21.069078
 30
0.0
 10
9.107026
 20
21.474654
 30
0.0
 10
8.627447
 20
21.724689
 30
0.0
 10
8.228664
 20
21.988753
 30
0.0
 10
7.904834
 20
22.264374
 30
0.0
 10
7.650114
 20
22.549080
 30
0.0
 10
7.458660
 20
22.840398
 30
0.0
 10
7.324628
 20
23.135857
 30
0.0
 10
7.242176
 20
23.432980
 30
0.0
 10
7.205460
 20
23.729291
 30
0.0
 10
7.250733
 20
24.301429
 30
0.0
 10
7.333904
 20
24.545607
 30
0.0
 10
7.459033
 20
24.754672
 30
0.0
 10
7.633337
 20
24.933700
 30
0.0
 10
7.877110
 20
25.084054
 30
0.0
 10
8.211171
 20
25.194778
 30
0.0
 10
8.656339
 20
25.254908
 30
0.0
 10
8.901543
 20
25.262867
 30
0.0
 10
8.901543
 20
25.262867
 30
0.0
  0
LWPOLYLINE
  5
108
100
AcDbEntity
  8
dued
 62
7
100
AcDbPolyline
 90
119
 70
0
 10
26.061496
 20
21.294591
 30
0.0
 10
26.557346
 20
20.739940
 30
0.0
 10
26.993534
 20
20.133893
 30
0.0
 10
27.360918
 20
19.477881
 30
0.0
 10
27.650359
 20
18.773359
 30
0.0
 10
27.966362
 20
17.596331
 30
0.0
 10
28.104829
 20
16.854843
 30
0.0
 10
28.213989
 20
16.036774
 30
0.0
 10
28.281633
 20
15.161174
 30
0.0
 10
28.295575
 20
14.247087
 30
0.0
 10
28.243547
 20
13.313581
 30
0.0
 10
28.113367
 20
12.379707
 30
0.0
 10
27.913402
 20
11.485599
 30
0.0
 10
27.709596
 20
11.645224
 30
0.0
 10
27.421418
 20
11.783626
 30
0.0
 10
27.102565
 20
11.862140
 30
0.0
 10
27.000174
 20
12.598430
 30
0.0
 10
26.859550
 20
13.315895
 30
0.0
 10
26.676102
 20
14.003981
 30
0.0
 10
26.445237
 20
14.652048
 30
0.0
 10
26.115361
 20
15.388332
 30
0.0
 10
25.699137
 20
16.133932
 30
0.0
 10
25.171993
 20
16.851439
 30
0.0
 10
24.859148
 20
17.187964
 30
0.0
 10
24.509360
 20
17.503432
 30
0.0
 10
24.356277
 20
17.592642
 30
0.0
 10
24.181882
 20
17.623930
 30
0.0
 10
24.025375
 20
17.599856
 30
0.0
 10
23.886804
 20
17.530819
 30
0.0
 10
23.775375
 20
17.423346
 30
0.0
 10
23.700292
 20
17.283928
 30
0.0
 10
23.671660
 20
17.128187
 30
0.0
 10
23.691367
 20
16.974629
 30
0.0
 10
23.756295
 20
16.834086
 30
0.0
 10
23.863329
 20
16.717387
 30
0.0
 10
24.398837
 20
16.188240
 30
0.0
 10
24.840362
 20
15.584891
 30
0.0
 10
25.203553
 20
14.934950
 30
0.0
 10
25.504065
 20
14.266109
 30
0.0
 10
25.697431
 20
13.720263
 30
0.0
 10
25.856093
 20
13.122290
 30
0.0
 10
26.078308
 20
11.817916
 30
0.0
 10
25.622328
 20
11.587340
 30
0.0
 10
25.253506
 20
11.247121
 30
0.0
 10
25.034489
 20
10.937298
 30
0.0
 10
24.856873
 20
10.595442
 30
0.0
 10
24.601893
 20
9.837675
 30
0.0
 10
24.592385
 20
9.635915
 30
0.0
 10
24.658673
 20
9.452527
 30
0.0
 10
24.788885
 20
9.307408
 30
0.0
 10
24.971140
 20
9.220371
 30
0.0
 10
25.172896
 20
9.210775
 30
0.0
 10
25.356280
 20
9.277069
 30
0.0
 10
25.501436
 20
9.407258
 30
0.0
 10
25.588508
 20
9.589489
 30
0.0
 10
25.788091
 20
10.178148
 30
0.0
 10
26.037414
 20
10.598264
 30
0.0
 10
26.174839
 20
10.739799
 30
0.0
 10
26.203260
 20
9.505302
 30
0.0
 10
26.270466
 20
9.241424
 30
0.0
 10
26.464154
 20
9.050021
 30
0.0
 10
26.728816
 20
8.985957
 30
0.0
 10
26.988600
 20
9.067576
 30
0.0
 10
26.494685
 20
8.224916
 30
0.0
 10
25.921194
 20
7.442314
 30
0.0
 10
25.266723
 20
6.727897
 30
0.0
 10
24.529865
 20
6.090075
 30
0.0
 10
23.773047
 20
5.580805
 30
0.0
 10
22.963907
 20
5.160830
 30
0.0
 10
22.117839
 20
4.823377
 30
0.0
 10
21.250229
 20
4.561559
 30
0.0
 10
20.376471
 20
4.368717
 30
0.0
 10
19.511953
 20
4.237963
 30
0.0
 10
18.672069
 20
4.162582
 30
0.0
 10
17.872204
 20
4.136053
 30
0.0
 10
16.273402
 20
4.189139
 30
0.0
 10
15.462842
 20
4.275329
 30
0.0
 10
14.654704
 20
4.412405
 30
0.0
 10
13.856384
 20
4.608718
 30
0.0
 10
13.075277
 20
4.872653
 30
0.0
 10
12.318778
 20
5.212476
 30
0.0
 10
11.594283
 20
5.636628
 30
0.0
 10
10.899804
 20
6.137403
 30
0.0
 10
10.261615
 20
6.675234
 30
0.0
 10
9.680598
 20
7.243009
 30
0.0
 10
9.157635
 20
7.833672
 30
0.0
 10
8.693609
 20
8.440083
 30
0.0
 10
8.289402
 20
9.055214
 30
0.0
 10
7.945897
 20
9.671870
 30
0.0
 10
7.663975
 20
10.283022
 30
0.0
 10
7.216590
 20
11.590614
 30
0.0
 10
6.882867
 20
13.003193
 30
0.0
 10
6.658083
 20
14.421162
 30
0.0
 10
6.537509
 20
15.744973
 30
0.0
 10
6.540390
 20
16.872533
 30
0.0
 10
6.635917
 20
17.754076
 30
0.0
 10
7.558753
 20
17.282717
 30
0.0
 10
8.481346
 20
16.895743
 30
0.0
 10
9.394633
 20
16.585216
 30
0.0
 10
10.289553
 20
16.343202
 30
0.0
 10
11.157046
 20
16.161762
 30
0.0
 10
11.988050
 20
16.032953
 30
0.0
 10
13.504345
 20
15.901494
 30
0.0
 10
14.419409
 20
15.872086
 30
0.0
 10
15.499929
 20
15.879339
 30
0.0
 10
16.712969
 20
15.955274
 30
0.0
 10
18.025596
 20
16.131925
 30
0.0
 10
19.404870
 20
16.441311
 30
0.0
 10
20.109210
 20
16.655789
 30
0.0
 10
20.817861
 20
16.915456
 30
0.0
 10
21.526705
 20
17.224323
 30
0.0
 10
22.231627
 20
17.586386
 30
0.0
 10
22.928511
 20
18.005655
 30
0.0
 10
23.613237
 20
18.486121
 30
0.0
 10
24.362267
 20
19.120452
 30
0.0
 10
25.015683
 20
19.807243
 30
0.0
 10
25.579952
 20
20.535673
 30
0.0
 10
26.061537
 20
21.294924
 30
0.0
 10
26.061537
 20
21.294924
 30
0.0
  0
LWPOLYLINE
  5
109
100
AcDbEntity
  8
dued
 62
7
100
AcDbPolyline
 90
7
 70
0
 10
27.194483
 20
10.760768
 30
0.0
 10
27.309227
 20
10.629591
 30
0.0
 10
27.466274
 20
10.369128
 30
0.0
 10
27.528593
 20
10.277349
 30
0.0
 10
27.220351
 20
9.546676
 30
0.0
 10
27.194482
 20
10.760768
 30
0.0
 10
27.194482
 20
10.760768
 30
0.0
  0
LWPOLYLINE
  5
10a
100
AcDbEntity
  8
fill
 62
7
100
AcDbPolyline
 90
21
 70
0
 10
15.818721
 20
39.269505
 30
0.0
 10
6.174649
 20
38.495163
 30
0.0
 10
2.021363
 20
35.257010
 30
0.0
 10
0.683864
 20
29.695830
 30
0.0
 10
1.810179
 20
23.360308
 30
0.0
 10
5.541097
 20
18.925443
 30
0.0
 10
5.893071
 20
18.432680
 30
0.0
 10
6.104255
 20
13.575455
 30
0.0
 10
7.441754
 20
8.859013
 30
0.0
 10
11.595040
 20
4.705718
 30
0.0
 10
17.226615
 20
3.368211
 30
0.0
 10
20.887138
 20
3.649784
 30
0.0
 10
26.518713
 20
7.380705
 30
0.0
 10
28.560158
 20
12.378748
 30
0.0
 10
27.926607
 20
19.136627
 30
0.0
 10
25.955556
 20
21.600441
 30
0.0
 10
27.152265
 20
27.302411
 30
0.0
 10
26.448318
 20
32.441223
 30
0.0
 10
23.280557
 20
36.735299
 30
0.0
 10
15.818721
 20
39.269505
 30
0.0
 10
15.818721
 20
39.269505
 30
0.0
  0
LWPOLYLINE
  5
10b
100
AcDbEntity
  8
fill
 62
7
100
AcDbPolyline
 90
10
 70
0
 10
7.889970
 20
33.667628
 30
0.0
 10
10.453876
 20
32.074949
 30
0.0
 10
10.528121
 20
30.083550
 30
0.0
 10
9.085030
 20
28.939088
 30
0.0
 10
7.093630
 20
28.814247
 30
0.0
 10
5.774829
 20
29.660631
 30
0.0
 10
5.351362
 20
31.601984
 30
0.0
 10
6.173000
 20
32.846542
 30
0.0
 10
7.889970
 20
33.667628
 30
0.0
 10
7.889970
 20
33.667628
 30
0.0
  0
LWPOLYLINE
  5
10c
100
AcDbEntity
  8
fill
 62
7
100
AcDbPolyline
 90
7
 70
0
 10
5.532298
 20
15.335313
 30
0.0
 10
4.502776
 20
14.428979
 30
0.0
 10
4.062809
 20
11.894765
 30
0.0
 10
5.998663
 20
10.126106
 30
0.0
 10
6.526623
 20
10.258102
 30
0.0
 10
5.532298
 20
15.335313
 30
0.0
 10
5.532298
 20
15.335313
 30
0.0
  0
ENDSEC
  0
SECTION
  2
OBJECTS
  0
DICTIONARY
  5
C
330
0
100
AcDbDictionary
  3
ACAD_GROUP
350
D
  3
ACAD_MLINESTYLE
350
17
  0
DICTIONARY
  5
D
330
C
100
AcDbDictionary
  0
DICTIONARY
  5
1A
330
C
100
AcDbDictionary
  0
DICTIONARY
  5
17
330
C
100
AcDbDictionary
  3
STANDARD
350
18
  0
DICTIONARY
  5
19
330
C
100
AcDbDictionary
  0
ENDSEC
  0
EOF
