  0
SECTION
  2
HEADER
  9
$ACADVER
  1
AC1014
  9
$HANDSEED
  5
FFFF
  9
$MEASUREMENT
 70
     1
  0
ENDSEC
  0
SECTION
  2
TABLES
  0
TABLE
  2
VPORT
  5
8
330
0
100
AcDbSymbolTable
 70
     4
  0
VPORT
  5
2E
330
8
100
AcDbSymbolTableRecord
100
AcDbViewportTableRecord
  2
*ACTIVE
 70
     0
 10
0.0
 20
0.0
 11
1.0
 21
1.0
 12
210.0
 22
148.5
 13
0.0
 23
0.0
 14
10.0
 24
10.0
 15
10.0
 25
10.0
 16
0.0
 26
0.0
 36
1.0
 17
0.0
 27
0.0
 37
0.0
 40
341.0
 41
1.24
 42
50.0
 43
0.0
 44
0.0
 50
0.0
 51
0.0
 71
     0
 72
   100
 73
     1
 74
     3
 75
     0
 76
     0
 77
     0
 78
     0
  0
ENDTAB
  0
TABLE
  2
LTYPE
  5
5
330
0
100
AcDbSymbolTable
 70
     1
  0
LTYPE
  5
14
330
5
100
AcDbSymbolTableRecord
100
AcDbLinetypeTableRecord
  2
BYBLOCK
 70
     0
  3

 72
    65
 73
     0
 40
0.0
  0
LTYPE
  5
15
330
5
100
AcDbSymbolTableRecord
100
AcDbLinetypeTableRecord
  2
BYLAYER
 70
     0
  3

 72
    65
 73
     0
 40
0.0
  0
LTYPE
  5
16
330
5
100
AcDbSymbolTableRecord
100
AcDbLinetypeTableRecord
  2
CONTINUOUS
 70
     0
  3
Solid line
 72
    65
 73
     0
 40
0.0
  0
ENDTAB
  0
TABLE
  2
LAYER
  5
2
100
AcDbSymbolTable
 70
3
  0
LAYER
  5
50
100
AcDbSymbolTableRecord
100
AcDbLayerTableRecord
  2
0
 70
0
  6
CONTINUOUS
  0
LAYER
  5
51
100
AcDbSymbolTableRecord
100
AcDbLayerTableRecord
  2
dued
 70
0
  6
CONTINUOUS
  0
LAYER
  5
52
100
AcDbSymbolTableRecord
100
AcDbLayerTableRecord
  2
fill
 70
0
  6
CONTINUOUS
  0
ENDTAB
  0
TABLE
  2
STYLE
  5
3
330
0
100
AcDbSymbolTable
 70
     1
  0
STYLE
  5
11
330
3
100
AcDbSymbolTableRecord
100
AcDbTextStyleTableRecord
  2
STANDARD
 70
     0
 40
0.0
 41
1.0
 50
0.0
 71
     0
 42
2.5
  3
txt
  4

  0
ENDTAB
  0
TABLE
  2
VIEW
  5
6
330
0
100
AcDbSymbolTable
 70
     0
  0
ENDTAB
  0
TABLE
  2
UCS
  5
7
330
0
100
AcDbSymbolTable
 70
     0
  0
ENDTAB
  0
TABLE
  2
APPID
  5
9
330
0
100
AcDbSymbolTable
 70
     2
  0
APPID
  5
12
330
9
100
AcDbSymbolTableRecord
100
AcDbRegAppTableRecord
  2
ACAD
 70
     0
  0
ENDTAB
  0
TABLE
  2
DIMSTYLE
  5
A
330
0
100
AcDbSymbolTable
 70
     1
  0
DIMSTYLE
105
27
330
A
100
AcDbSymbolTableRecord
100
AcDbDimStyleTableRecord
  2
ISO-25
 70
     0
  3

  4

  5

  6

  7

 40
1.0
 41
2.5
 42
0.625
 43
3.75
 44
1.25
 45
0.0
 46
0.0
 47
0.0
 48
0.0
140
2.5
141
2.5
142
0.0
143
0.03937007874016
144
1.0
145
0.0
146
1.0
147
0.625
 71
     0
 72
     0
 73
     0
 74
     0
 75
     0
 76
     0
 77
     1
 78
     8
170
     0
171
     3
172
     1
173
     0
174
     0
175
     0
176
     0
177
     0
178
     0
270
     2
271
     2
272
     2
273
     2
274
     3
340
11
275
     0
280
     0
281
     0
282
     0
283
     0
284
     8
285
     0
286
     0
287
     3
288
     0
  0
ENDTAB
  0
TABLE
  2
BLOCK_RECORD
  5
1
330
0
100
AcDbSymbolTable
 70
     1
  0
BLOCK_RECORD
  5
1F
330
1
100
AcDbSymbolTableRecord
100
AcDbBlockTableRecord
  2
*MODEL_SPACE
  0
BLOCK_RECORD
  5
1B
330
1
100
AcDbSymbolTableRecord
100
AcDbBlockTableRecord
  2
*PAPER_SPACE
  0
ENDTAB
  0
ENDSEC
  0
SECTION
  2
BLOCKS
  0
BLOCK
  5
20
330
1F
100
AcDbEntity
  8
0
100
AcDbBlockBegin
  2
*MODEL_SPACE
 70
     0
 10
0.0
 20
0.0
 30
0.0
  3
*MODEL_SPACE
  1

  0
ENDBLK
  5
21
330
1F
100
AcDbEntity
  8
0
100
AcDbBlockEnd
  0
BLOCK
  5
1C
330
1B
100
AcDbEntity
 67
     1
  8
0
100
AcDbBlockBegin
  2
*PAPER_SPACE
  1

  0
ENDBLK
  5
1D
330
1B
100
AcDbEntity
 67
     1
  8
0
100
AcDbBlockEnd
  0
ENDSEC
  0
SECTION
  2
ENTITIES
  0
LWPOLYLINE
  5
100
100
AcDbEntity
  8
dued
 62
7
100
AcDbPolyline
 90
194
 70
0
 10
34.990813
 20
113.236172
 30
0.0
 10
31.866197
 20
113.122244
 30
0.0
 10
28.697144
 20
112.885020
 30
0.0
 10
25.521222
 20
112.494396
 30
0.0
 10
22.376000
 20
111.920212
 30
0.0
 10
19.299047
 20
111.132348
 30
0.0
 10
16.327934
 20
110.100644
 30
0.0
 10
13.500226
 20
108.794972
 30
0.0
 10
10.853494
 20
107.185180
 30
0.0
 10
9.418938
 20
106.109996
 30
0.0
 10
8.101186
 20
104.966460
 30
0.0
 10
6.897064
 20
103.755524
 30
0.0
 10
5.803406
 20
102.478188
 30
0.0
 10
4.817039
 20
101.135404
 30
0.0
 10
3.934792
 20
99.728148
 30
0.0
 10
2.469979
 20
96.724060
 30
0.0
 10
1.383601
 20
93.473660
 30
0.0
 10
0.650294
 20
89.984716
 30
0.0
 10
0.244694
 20
86.264956
 30
0.0
 10
0.141436
 20
82.322148
 30
0.0
 10
0.234384
 20
80.225572
 30
0.0
 10
0.468248
 20
78.112572
 30
0.0
 10
0.836468
 20
75.993852
 30
0.0
 10
1.332483
 20
73.880132
 30
0.0
 10
2.681653
 20
69.710564
 30
0.0
 10
4.463268
 20
65.689572
 30
0.0
 10
6.624838
 20
61.902884
 30
0.0
 10
9.113878
 20
58.436196
 30
0.0
 10
10.464796
 20
56.849660
 30
0.0
 10
11.877897
 20
55.375252
 30
0.0
 10
13.346621
 20
54.023716
 30
0.0
 10
14.864406
 20
52.805740
 30
0.0
 10
16.176823
 20
51.880116
 30
0.0
 10
15.814138
 20
49.568844
 30
0.0
 10
15.613831
 20
46.405812
 30
0.0
 10
14.840757
 20
45.807900
 30
0.0
 10
14.104114
 20
45.072068
 30
0.0
 10
13.411404
 20
44.200980
 30
0.0
 10
12.770123
 20
43.197332
 30
0.0
 10
11.671847
 20
40.803044
 30
0.0
 10
10.869279
 20
37.910564
 30
0.0
 10
10.095722
 20
33.692004
 30
0.0
 10
9.002290
 20
33.429364
 30
0.0
 10
8.006931
 20
33.019684
 30
0.0
 10
7.121002
 20
32.471204
 30
0.0
 10
6.355873
 20
31.792004
 30
0.0
 10
5.572773
 20
30.793844
 30
0.0
 10
4.963794
 20
29.676164
 30
0.0
 10
4.500089
 20
28.460164
 30
0.0
 10
4.152809
 20
27.167364
 30
0.0
 10
4.139703
 20
26.595044
 30
0.0
 10
4.340102
 20
26.080004
 30
0.0
 10
4.718998
 20
25.677604
 30
0.0
 10
5.241381
 20
25.443364
 30
0.0
 10
5.813708
 20
25.430564
 30
0.0
 10
6.328822
 20
25.630804
 30
0.0
 10
6.731267
 20
26.009684
 30
0.0
 10
6.965591
 20
26.532084
 30
0.0
 10
7.589565
 20
28.468244
 30
0.0
 10
7.991669
 20
29.216484
 30
0.0
 10
8.451890
 20
29.811684
 30
0.0
 10
9.012590
 20
30.296564
 30
0.0
 10
9.690922
 20
30.648484
 30
0.0
 10
9.512747
 20
27.915044
 30
0.0
 10
9.563275
 20
25.273924
 30
0.0
 10
9.796451
 20
24.557764
 30
0.0
 10
10.358876
 20
24.056964
 30
0.0
 10
11.097110
 20
23.908004
 30
0.0
 10
11.809751
 20
24.151524
 30
0.0
 10
12.302373
 20
24.721204
 30
0.0
 10
12.440585
 20
25.461444
 30
0.0
 10
12.397577
 20
28.040244
 30
0.0
 10
12.598970
 20
30.778644
 30
0.0
 10
13.442979
 20
30.390644
 30
0.0
 10
14.105066
 20
29.792084
 30
0.0
 10
14.532993
 20
29.188884
 30
0.0
 10
14.880303
 20
28.474564
 30
0.0
 10
15.315361
 20
26.828564
 30
0.0
 10
15.605690
 20
26.134404
 30
0.0
 10
16.206223
 20
25.680884
 30
0.0
 10
16.953404
 20
25.591764
 30
0.0
 10
17.643730
 20
25.891284
 30
0.0
 10
18.089189
 20
26.497684
 30
0.0
 10
18.168445
 20
27.245924
 30
0.0
 10
17.935387
 20
28.411124
 30
0.0
 10
17.559442
 20
29.562004
 30
0.0
 10
17.016754
 20
30.663764
 30
0.0
 10
16.283465
 20
31.681524
 30
0.0
 10
15.624015
 20
32.328804
 30
0.0
 10
14.850686
 20
32.878564
 30
0.0
 10
13.973482
 20
33.315124
 30
0.0
 10
13.002415
 20
33.622004
 30
0.0
 10
13.695114
 20
37.337924
 30
0.0
 10
14.095847
 20
38.896004
 30
0.0
 10
14.604197
 20
40.262244
 30
0.0
 10
15.184152
 20
41.436404
 30
0.0
 10
15.799694
 20
42.418364
 30
0.0
 10
16.224693
 20
38.848804
 30
0.0
 10
16.894713
 20
35.143844
 30
0.0
 10
17.832677
 20
31.466084
 30
0.0
 10
19.061503
 20
27.978324
 30
0.0
 10
19.953502
 20
26.041044
 30
0.0
 10
21.030405
 20
24.102244
 30
0.0
 10
22.290322
 20
22.180964
 30
0.0
 10
23.731366
 20
20.296404
 30
0.0
 10
25.351648
 20
18.467764
 30
0.0
 10
27.149280
 20
16.714084
 30
0.0
 10
29.122374
 20
15.054404
 30
0.0
 10
31.269039
 20
13.508164
 30
0.0
 10
34.066515
 20
11.916644
 30
0.0
 10
33.493931
 20
10.051364
 30
0.0
 10
32.892132
 20
7.524804
 30
0.0
 10
32.466410
 20
4.597364
 30
0.0
 10
32.383738
 20
3.064724
 30
0.0
 10
32.422074
 20
1.529364
 30
0.0
 10
32.652494
 20
0.805764
 30
0.0
 10
33.218687
 20
0.299444
 30
0.0
 10
33.963562
 20
0.151284
 30
0.0
 10
34.680446
 20
0.402084
 30
0.0
 10
35.170436
 20
0.982324
 30
0.0
 10
35.297580
 20
1.731124
 30
0.0
 10
35.346108
 20
4.232644
 30
0.0
 10
35.717520
 20
6.751764
 30
0.0
 10
36.242798
 20
9.023684
 30
0.0
 10
36.752933
 20
10.783684
 30
0.0
 10
40.269987
 20
9.762724
 30
0.0
 10
43.809492
 20
9.143044
 30
0.0
 10
47.302442
 20
8.840884
 30
0.0
 10
50.679838
 20
8.772884
 30
0.0
 10
54.129060
 20
8.923764
 30
0.0
 10
57.800298
 20
9.382564
 30
0.0
 10
61.573236
 20
10.221044
 30
0.0
 10
63.460246
 20
10.804804
 30
0.0
 10
65.327560
 20
11.510404
 30
0.0
 10
65.861147
 20
7.088724
 30
0.0
 10
66.046230
 20
4.359524
 30
0.0
 10
66.066374
 20
1.631444
 30
0.0
 10
66.235016
 20
0.904324
 30
0.0
 10
66.744660
 20
0.358964
 30
0.0
 10
67.458721
 20
0.141444
 30
0.0
 10
68.185830
 20
0.310244
 30
0.0
 10
68.731122
 20
0.819924
 30
0.0
 10
68.948458
 20
1.534164
 30
0.0
 10
68.909370
 20
5.048964
 30
0.0
 10
68.650800
 20
8.367204
 30
0.0
 10
68.049889
 20
12.815284
 30
0.0
 10
69.700793
 20
13.793524
 30
0.0
 10
71.288431
 20
14.907284
 30
0.0
 10
73.496179
 20
16.802644
 30
0.0
 10
75.464104
 20
18.902164
 30
0.0
 10
77.197398
 20
21.182644
 30
0.0
 10
78.701245
 20
23.621124
 30
0.0
 10
79.980831
 20
26.194724
 30
0.0
 10
81.041344
 20
28.880164
 30
0.0
 10
81.887976
 20
31.654324
 30
0.0
 10
82.525904
 20
34.494404
 30
0.0
 10
82.935848
 20
37.389604
 30
0.0
 10
83.106472
 20
40.247764
 30
0.0
 10
83.073512
 20
43.023564
 30
0.0
 10
82.872888
 20
45.671428
 30
0.0
 10
82.540336
 20
48.146028
 30
0.0
 10
82.111656
 20
50.401964
 30
0.0
 10
81.109136
 20
54.076236
 30
0.0
 10
80.046856
 20
56.621964
 30
0.0
 10
78.687146
 20
58.960284
 30
0.0
 10
77.072616
 20
61.085156
 30
0.0
 10
75.245857
 20
62.990564
 30
0.0
 10
76.206921
 20
65.381428
 30
0.0
 10
76.964953
 20
67.758868
 30
0.0
 10
77.540997
 20
70.086076
 30
0.0
 10
77.956090
 20
72.326220
 30
0.0
 10
78.387586
 20
76.398028
 30
0.0
 10
78.427770
 20
79.679684
 30
0.0
 10
78.105072
 20
84.578652
 30
0.0
 10
77.705522
 20
87.377300
 30
0.0
 10
77.048510
 20
90.317276
 30
0.0
 10
76.060038
 20
93.329956
 30
0.0
 10
74.666109
 20
96.346764
 30
0.0
 10
73.793974
 20
97.835276
 30
0.0
 10
72.792723
 20
99.299084
 30
0.0
 10
71.653113
 20
100.729620
 30
0.0
 10
70.365889
 20
102.118324
 30
0.0
 10
68.909506
 20
103.456436
 30
0.0
 10
67.313688
 20
104.706964
 30
0.0
 10
65.594731
 20
105.870316
 30
0.0
 10
63.768933
 20
106.946892
 30
0.0
 10
59.861999
 20
108.841332
 30
0.0
 10
55.723262
 20
110.393508
 30
0.0
 10
51.483098
 20
111.606676
 30
0.0
 10
47.271878
 20
112.484052
 30
0.0
 10
43.219978
 20
113.028884
 30
0.0
 10
39.457778
 20
113.244412
 30
0.0
 10
34.990777
 20
113.237212
 30
0.0
 10
34.990777
 20
113.237212
 30
0.0
  0
LWPOLYLINE
  5
101
100
AcDbEntity
  8
dued
 62
7
100
AcDbPolyline
 90
76
 70
0
 10
35.942758
 20
110.360692
 30
0.0
 10
39.415298
 20
110.359092
 30
0.0
 10
42.922164
 20
110.141604
 30
0.0
 10
46.749256
 20
109.593492
 30
0.0
 10
50.751749
 20
108.727572
 30
0.0
 10
54.784814
 20
107.556604
 30
0.0
 10
58.703628
 20
106.093412
 30
0.0
 10
62.363362
 20
104.350756
 30
0.0
 10
64.050817
 20
103.378628
 30
0.0
 10
65.619193
 20
102.341428
 30
0.0
 10
67.050386
 20
101.240772
 30
0.0
 10
68.326293
 20
100.078244
 30
0.0
 10
69.468068
 20
98.846452
 30
0.0
 10
70.480079
 20
97.575804
 30
0.0
 10
72.147125
 20
94.945588
 30
0.0
 10
73.392034
 20
92.242868
 30
0.0
 10
74.279422
 20
89.522948
 30
0.0
 10
74.873894
 20
86.841124
 30
0.0
 10
75.240062
 20
84.252684
 30
0.0
 10
75.545926
 20
79.577124
 30
0.0
 10
75.533166
 20
77.245572
 30
0.0
 10
75.301975
 20
74.387268
 30
0.0
 10
74.778546
 20
71.153228
 30
0.0
 10
73.889094
 20
67.694460
 30
0.0
 10
72.559839
 20
64.161996
 30
0.0
 10
71.707231
 20
62.415316
 30
0.0
 10
70.717003
 20
60.706836
 30
0.0
 10
69.579934
 20
59.055420
 30
0.0
 10
68.286802
 20
57.479980
 30
0.0
 10
66.828385
 20
55.999356
 30
0.0
 10
65.195458
 20
54.632444
 30
0.0
 10
63.421905
 20
53.388964
 30
0.0
 10
61.611506
 20
52.302188
 30
0.0
 10
59.775004
 20
51.361996
 30
0.0
 10
57.923130
 20
50.558292
 30
0.0
 10
54.216226
 20
49.320020
 30
0.0
 10
50.576690
 20
48.506636
 30
0.0
 10
47.090418
 20
48.037380
 30
0.0
 10
43.843310
 20
47.831524
 30
0.0
 10
40.921262
 20
47.808324
 30
0.0
 10
38.410173
 20
47.887044
 30
0.0
 10
36.062039
 20
48.048348
 30
0.0
 10
33.524219
 20
48.353028
 30
0.0
 10
30.837320
 20
48.835468
 30
0.0
 10
28.041942
 20
49.530084
 30
0.0
 10
25.178690
 20
50.471244
 30
0.0
 10
22.288169
 20
51.693364
 30
0.0
 10
19.410982
 20
53.230812
 30
0.0
 10
16.587731
 20
55.118012
 30
0.0
 10
15.238000
 20
56.207068
 30
0.0
 10
13.920912
 20
57.434076
 30
0.0
 10
11.414060
 20
60.253748
 30
0.0
 10
9.125965
 20
63.480620
 30
0.0
 10
7.115417
 20
67.018332
 30
0.0
 10
5.441209
 20
70.770484
 30
0.0
 10
4.162129
 20
74.640708
 30
0.0
 10
3.336971
 20
78.532604
 30
0.0
 10
3.112983
 20
80.456556
 30
0.0
 10
3.024521
 20
82.349804
 30
0.0
 10
3.110728
 20
86.071332
 30
0.0
 10
3.461155
 20
89.511684
 30
0.0
 10
4.100587
 20
92.681020
 30
0.0
 10
5.053803
 20
95.589540
 30
0.0
 10
6.345585
 20
98.247420
 30
0.0
 10
8.000714
 20
100.664868
 30
0.0
 10
10.043973
 20
102.852036
 30
0.0
 10
12.500142
 20
104.819140
 30
0.0
 10
14.940782
 20
106.286028
 30
0.0
 10
17.606935
 20
107.480524
 30
0.0
 10
20.455802
 20
108.428228
 30
0.0
 10
23.444579
 20
109.154716
 30
0.0
 10
26.530462
 20
109.685604
 30
0.0
 10
29.670650
 20
110.046460
 30
0.0
 10
32.822338
 20
110.262860
 30
0.0
 10
35.942726
 20
110.360396
 30
0.0
 10
35.942726
 20
110.360396
 30
0.0
  0
LWPOLYLINE
  5
102
100
AcDbEntity
  8
dued
 62
7
100
AcDbPolyline
 90
36
 70
0
 10
21.856135
 20
96.571348
 30
0.0
 10
20.884539
 20
96.506548
 30
0.0
 10
18.958407
 20
96.067220
 30
0.0
 10
17.251270
 20
95.247436
 30
0.0
 10
15.797345
 20
94.107700
 30
0.0
 10
14.630839
 20
92.708516
 30
0.0
 10
13.785974
 20
91.110412
 30
0.0
 10
13.296962
 20
89.373876
 30
0.0
 10
13.198015
 20
87.559420
 30
0.0
 10
13.523349
 20
85.727572
 30
0.0
 10
13.855394
 20
84.839668
 30
0.0
 10
14.288242
 20
84.021548
 30
0.0
 10
15.413991
 20
82.599780
 30
0.0
 10
16.815878
 20
81.472516
 30
0.0
 10
18.409180
 20
80.649996
 30
0.0
 10
20.123315
 20
80.128932
 30
0.0
 10
21.908584
 20
79.906436
 30
0.0
 10
23.711608
 20
79.993308
 30
0.0
 10
25.479006
 20
80.400380
 30
0.0
 10
26.819295
 20
80.956540
 30
0.0
 10
28.023815
 20
81.690596
 30
0.0
 10
29.071792
 20
82.586444
 30
0.0
 10
29.942450
 20
83.627956
 30
0.0
 10
30.615016
 20
84.799020
 30
0.0
 10
31.068716
 20
86.083508
 30
0.0
 10
31.282774
 20
87.465316
 30
0.0
 10
31.236422
 20
88.928316
 30
0.0
 10
30.873892
 20
90.540220
 30
0.0
 10
30.216742
 20
92.016092
 30
0.0
 10
29.296568
 20
93.330164
 30
0.0
 10
28.144964
 20
94.456660
 30
0.0
 10
26.793523
 20
95.369804
 30
0.0
 10
25.273843
 20
96.043828
 30
0.0
 10
23.617518
 20
96.452948
 30
0.0
 10
21.856140
 20
96.571388
 30
0.0
 10
21.856140
 20
96.571388
 30
0.0
  0
LWPOLYLINE
  5
103
100
AcDbEntity
  8
dued
 62
7
100
AcDbPolyline
 90
36
 70
0
 10
51.235784
 20
96.647004
 30
0.0
 10
50.265755
 20
96.582204
 30
0.0
 10
48.339623
 20
96.142892
 30
0.0
 10
46.632486
 20
95.323100
 30
0.0
 10
45.178560
 20
94.183364
 30
0.0
 10
44.012058
 20
92.784188
 30
0.0
 10
43.167190
 20
91.186068
 30
0.0
 10
42.678178
 20
89.449540
 30
0.0
 10
42.579232
 20
87.635092
 30
0.0
 10
42.904566
 20
85.803228
 30
0.0
 10
43.236608
 20
84.915324
 30
0.0
 10
43.669457
 20
84.097212
 30
0.0
 10
44.795206
 20
82.675452
 30
0.0
 10
46.197094
 20
81.548188
 30
0.0
 10
47.790397
 20
80.725660
 30
0.0
 10
49.504286
 20
80.204588
 30
0.0
 10
51.289017
 20
79.982076
 30
0.0
 10
53.091502
 20
80.068948
 30
0.0
 10
54.858655
 20
80.476012
 30
0.0
 10
56.198946
 20
81.032172
 30
0.0
 10
57.403466
 20
81.766228
 30
0.0
 10
58.451442
 20
82.662068
 30
0.0
 10
59.322102
 20
83.703580
 30
0.0
 10
59.994668
 20
84.874644
 30
0.0
 10
60.448366
 20
86.159140
 30
0.0
 10
60.662426
 20
87.540948
 30
0.0
 10
60.616066
 20
89.003956
 30
0.0
 10
60.253536
 20
90.615844
 30
0.0
 10
59.596386
 20
92.091716
 30
0.0
 10
58.676211
 20
93.405788
 30
0.0
 10
57.524606
 20
94.532292
 30
0.0
 10
56.173167
 20
95.445420
 30
0.0
 10
54.653486
 20
96.119452
 30
0.0
 10
52.997161
 20
96.528564
 30
0.0
 10
51.235782
 20
96.647028
 30
0.0
 10
51.235782
 20
96.647028
 30
0.0
  0
LWPOLYLINE
  5
104
100
AcDbEntity
  8
dued
 62
7
100
AcDbPolyline
 90
35
 70
0
 10
21.920070
 20
93.690412
 30
0.0
 10
23.187329
 20
93.617292
 30
0.0
 10
24.354113
 20
93.343964
 30
0.0
 10
25.404878
 20
92.889644
 30
0.0
 10
26.324081
 20
92.273628
 30
0.0
 10
27.096176
 20
91.515188
 30
0.0
 10
27.705618
 20
90.633588
 30
0.0
 10
28.136862
 20
89.648108
 30
0.0
 10
28.374366
 20
88.578012
 30
0.0
 10
28.421294
 20
87.594620
 30
0.0
 10
28.312481
 20
86.699996
 30
0.0
 10
28.051270
 20
85.893132
 30
0.0
 10
27.641008
 20
85.172956
 30
0.0
 10
27.085039
 20
84.538468
 30
0.0
 10
26.386710
 20
83.988636
 30
0.0
 10
25.549364
 20
83.522412
 30
0.0
 10
24.576346
 20
83.138780
 30
0.0
 10
23.325785
 20
82.856580
 30
0.0
 10
22.018716
 20
82.797860
 30
0.0
 10
20.717438
 20
82.956404
 30
0.0
 10
19.484254
 20
83.326020
 30
0.0
 10
18.385125
 20
83.886500
 30
0.0
 10
17.465002
 20
84.617092
 30
0.0
 10
16.754666
 20
85.510652
 30
0.0
 10
16.284906
 20
86.560108
 30
0.0
 10
16.077030
 20
87.736900
 30
0.0
 10
16.141686
 20
88.915084
 30
0.0
 10
16.460218
 20
90.052292
 30
0.0
 10
17.013975
 20
91.106156
 30
0.0
 10
17.784309
 20
92.034316
 30
0.0
 10
18.752564
 20
92.794396
 30
0.0
 10
19.900086
 20
93.344044
 30
0.0
 10
21.208227
 20
93.640884
 30
0.0
 10
21.920069
 20
93.690484
 30
0.0
 10
21.920069
 20
93.690484
 30
0.0
  0
LWPOLYLINE
  5
105
100
AcDbEntity
  8
dued
 62
7
100
AcDbPolyline
 90
35
 70
0
 10
51.301287
 20
93.766076
 30
0.0
 10
52.568477
 20
93.693036
 30
0.0
 10
53.735083
 20
93.419692
 30
0.0
 10
54.785598
 20
92.965372
 30
0.0
 10
55.704514
 20
92.349364
 30
0.0
 10
56.476322
 20
91.590900
 30
0.0
 10
57.085514
 20
90.709308
 30
0.0
 10
57.516580
 20
89.723812
 30
0.0
 10
57.754015
 20
88.653724
 30
0.0
 10
57.800951
 20
87.670332
 30
0.0
 10
57.692139
 20
86.775708
 30
0.0
 10
57.430930
 20
85.968828
 30
0.0
 10
57.020667
 20
85.248668
 30
0.0
 10
56.464698
 20
84.614172
 30
0.0
 10
55.766368
 20
84.064340
 30
0.0
 10
54.929022
 20
83.598124
 30
0.0
 10
53.956003
 20
83.214484
 30
0.0
 10
52.705444
 20
82.932284
 30
0.0
 10
51.398374
 20
82.873564
 30
0.0
 10
50.097098
 20
83.032100
 30
0.0
 10
48.863913
 20
83.401708
 30
0.0
 10
47.764783
 20
83.962204
 30
0.0
 10
46.844658
 20
84.692788
 30
0.0
 10
46.134326
 20
85.586340
 30
0.0
 10
45.664565
 20
86.635788
 30
0.0
 10
45.456755
 20
87.812588
 30
0.0
 10
45.521587
 20
88.990780
 30
0.0
 10
45.840370
 20
90.127996
 30
0.0
 10
46.394418
 20
91.181876
 30
0.0
 10
47.165038
 20
92.110028
 30
0.0
 10
48.133542
 20
92.870108
 30
0.0
 10
49.281243
 20
93.419756
 30
0.0
 10
50.589449
 20
93.716612
 30
0.0
 10
51.301294
 20
93.766212
 30
0.0
 10
51.301294
 20
93.766212
 30
0.0
  0
LWPOLYLINE
  5
106
100
AcDbEntity
  8
dued
 62
7
100
AcDbPolyline
 90
58
 70
0
 10
24.810154
 20
74.419908
 30
0.0
 10
24.360958
 20
74.399828
 30
0.0
 10
22.601811
 20
74.141212
 30
0.0
 10
21.089047
 20
73.614308
 30
0.0
 10
19.837449
 20
72.846660
 30
0.0
 10
18.861799
 20
71.865804
 30
0.0
 10
18.175463
 20
70.734092
 30
0.0
 10
17.754627
 20
69.524172
 30
0.0
 10
17.558299
 20
68.278972
 30
0.0
 10
17.545491
 20
67.041436
 30
0.0
 10
17.710767
 20
65.786044
 30
0.0
 10
18.074158
 20
64.544788
 30
0.0
 10
18.638993
 20
63.331852
 30
0.0
 10
19.408595
 20
62.161452
 30
0.0
 10
20.386296
 20
61.047804
 30
0.0
 10
21.575423
 20
60.005108
 30
0.0
 10
22.979300
 20
59.047556
 30
0.0
 10
24.601259
 20
58.189380
 30
0.0
 10
27.786980
 20
56.928708
 30
0.0
 10
30.841743
 20
56.154388
 30
0.0
 10
34.050254
 20
55.719780
 30
0.0
 10
37.697215
 20
55.478244
 30
0.0
 10
41.059231
 20
55.400484
 30
0.0
 10
44.245623
 20
55.545412
 30
0.0
 10
47.312985
 20
55.970348
 30
0.0
 10
50.317913
 20
56.732780
 30
0.0
 10
51.810917
 20
57.287244
 30
0.0
 10
53.202034
 20
57.971100
 30
0.0
 10
54.475513
 20
58.780868
 30
0.0
 10
55.615590
 20
59.713172
 30
0.0
 10
56.606510
 20
60.764516
 30
0.0
 10
57.432512
 20
61.931484
 30
0.0
 10
58.077840
 20
63.210636
 30
0.0
 10
58.526736
 20
64.598516
 30
0.0
 10
58.758050
 20
66.096684
 30
0.0
 10
58.735298
 20
67.632140
 30
0.0
 10
58.435438
 20
69.155060
 30
0.0
 10
57.835410
 20
70.615684
 30
0.0
 10
56.900712
 20
71.944644
 30
0.0
 10
55.627037
 20
73.056124
 30
0.0
 10
54.036623
 20
73.875492
 30
0.0
 10
52.151703
 20
74.328140
 30
0.0
 10
50.313600
 20
74.388620
 30
0.0
 10
48.675714
 20
74.166796
 30
0.0
 10
47.162515
 20
73.768764
 30
0.0
 10
45.698478
 20
73.300548
 30
0.0
 10
44.167948
 20
72.846660
 30
0.0
 10
42.412053
 20
72.467364
 30
0.0
 10
40.290434
 20
72.232532
 30
0.0
 10
37.662730
 20
72.211972
 30
0.0
 10
35.041502
 20
72.394436
 30
0.0
 10
33.006977
 20
72.690868
 30
0.0
 10
31.399482
 20
73.059004
 30
0.0
 10
30.059348
 20
73.456660
 30
0.0
 10
27.667586
 20
74.147492
 30
0.0
 10
26.335134
 20
74.364676
 30
0.0
 10
24.810158
 20
74.419636
 30
0.0
 10
24.810158
 20
74.419636
 30
0.0
  0
LWPOLYLINE
  5
107
100
AcDbEntity
  8
dued
 62
7
100
AcDbPolyline
 90
56
 70
0
 10
25.232702
 20
71.543412
 30
0.0
 10
26.278282
 20
71.481412
 30
0.0
 10
27.207902
 20
71.307716
 30
0.0
 10
29.190685
 20
70.707532
 30
0.0
 10
30.645389
 20
70.280892
 30
0.0
 10
32.452094
 20
69.870876
 30
0.0
 10
34.719015
 20
69.535188
 30
0.0
 10
37.554366
 20
69.331476
 30
0.0
 10
40.473993
 20
69.363076
 30
0.0
 10
42.895958
 20
69.637612
 30
0.0
 10
44.902588
 20
70.064716
 30
0.0
 10
46.576212
 20
70.554004
 30
0.0
 10
49.221770
 20
71.343852
 30
0.0
 10
50.448030
 20
71.515100
 30
0.0
 10
51.806524
 20
71.465500
 30
0.0
 10
53.059779
 20
71.184492
 30
0.0
 10
54.026795
 20
70.702236
 30
0.0
 10
54.755592
 20
70.048452
 30
0.0
 10
55.294189
 20
69.252788
 30
0.0
 10
55.664046
 20
68.334020
 30
0.0
 10
55.856687
 20
67.327612
 30
0.0
 10
55.875231
 20
66.288220
 30
0.0
 10
55.722749
 20
65.270564
 30
0.0
 10
55.408585
 20
64.293012
 30
0.0
 10
54.952835
 20
63.382828
 30
0.0
 10
54.359070
 20
62.542596
 30
0.0
 10
53.630858
 20
61.774924
 30
0.0
 10
52.771762
 20
61.082356
 30
0.0
 10
51.785352
 20
60.467500
 30
0.0
 10
50.675195
 20
59.932924
 30
0.0
 10
49.444857
 20
59.481212
 30
0.0
 10
46.759722
 20
58.799292
 30
0.0
 10
43.980455
 20
58.414884
 30
0.0
 10
41.031406
 20
58.282812
 30
0.0
 10
37.836930
 20
58.357932
 30
0.0
 10
34.336189
 20
58.580228
 30
0.0
 10
31.409662
 20
58.963284
 30
0.0
 10
28.691336
 20
59.655460
 30
0.0
 10
25.815190
 20
60.805124
 30
0.0
 10
24.455754
 20
61.513884
 30
0.0
 10
23.325346
 20
62.262412
 30
0.0
 10
22.407404
 20
63.043700
 30
0.0
 10
21.685363
 20
63.850740
 30
0.0
 10
21.142658
 20
64.676524
 30
0.0
 10
20.762726
 20
65.514044
 30
0.0
 10
20.529004
 20
66.356284
 30
0.0
 10
20.424925
 20
67.196220
 30
0.0
 10
20.553258
 20
68.818028
 30
0.0
 10
20.789018
 20
69.510188
 30
0.0
 10
21.143716
 20
70.102812
 30
0.0
 10
21.637805
 20
70.610292
 30
0.0
 10
22.328814
 20
71.036492
 30
0.0
 10
23.275759
 20
71.350356
 30
0.0
 10
24.537654
 20
71.520804
 30
0.0
 10
25.232719
 20
71.543364
 30
0.0
 10
25.232719
 20
71.543364
 30
0.0
  0
LWPOLYLINE
  5
108
100
AcDbEntity
  8
dued
 62
7
100
AcDbPolyline
 90
119
 70
0
 10
73.875106
 20
60.294708
 30
0.0
 10
75.280666
 20
58.722468
 30
0.0
 10
76.517104
 20
57.004540
 30
0.0
 10
77.558509
 20
55.144980
 30
0.0
 10
78.378970
 20
53.147908
 30
0.0
 10
79.274728
 20
49.811452
 30
0.0
 10
79.667230
 20
47.709596
 30
0.0
 10
79.976662
 20
45.390660
 30
0.0
 10
80.168408
 20
42.908644
 30
0.0
 10
80.207928
 20
40.317524
 30
0.0
 10
80.060448
 20
37.671364
 30
0.0
 10
79.691435
 20
35.024164
 30
0.0
 10
79.124605
 20
32.489684
 30
0.0
 10
78.546886
 20
32.942164
 30
0.0
 10
77.730005
 20
33.334484
 30
0.0
 10
76.826167
 20
33.557044
 30
0.0
 10
76.535926
 20
35.644164
 30
0.0
 10
76.137308
 20
37.677924
 30
0.0
 10
75.617297
 20
39.628404
 30
0.0
 10
74.962878
 20
41.465444
 30
0.0
 10
74.027795
 20
43.552556
 30
0.0
 10
72.847946
 20
45.666068
 30
0.0
 10
71.353680
 20
47.699948
 30
0.0
 10
70.466875
 20
48.653876
 30
0.0
 10
69.475351
 20
49.548116
 30
0.0
 10
69.041416
 20
49.800996
 30
0.0
 10
68.547068
 20
49.889684
 30
0.0
 10
68.103426
 20
49.821444
 30
0.0
 10
67.710626
 20
49.625748
 30
0.0
 10
67.394764
 20
49.321100
 30
0.0
 10
67.181930
 20
48.925900
 30
0.0
 10
67.100767
 20
48.484428
 30
0.0
 10
67.156631
 20
48.049148
 30
0.0
 10
67.340679
 20
47.650756
 30
0.0
 10
67.644081
 20
47.319956
 30
0.0
 10
69.162058
 20
45.820012
 30
0.0
 10
70.413623
 20
44.109732
 30
0.0
 10
71.443143
 20
42.267380
 30
0.0
 10
72.294989
 20
40.371444
 30
0.0
 10
72.843112
 20
38.824164
 30
0.0
 10
73.292862
 20
37.129124
 30
0.0
 10
73.922762
 20
33.431684
 30
0.0
 10
72.630221
 20
32.778084
 30
0.0
 10
71.584742
 20
31.813684
 30
0.0
 10
70.963906
 20
30.935444
 30
0.0
 10
70.460426
 20
29.966404
 30
0.0
 10
69.737649
 20
27.818404
 30
0.0
 10
69.710697
 20
27.246484
 30
0.0
 10
69.898602
 20
26.726644
 30
0.0
 10
70.267705
 20
26.315284
 30
0.0
 10
70.784334
 20
26.068564
 30
0.0
 10
71.356240
 20
26.041364
 30
0.0
 10
71.876069
 20
26.229284
 30
0.0
 10
72.287535
 20
26.598324
 30
0.0
 10
72.534352
 20
27.114884
 30
0.0
 10
73.100099
 20
28.783524
 30
0.0
 10
73.806842
 20
29.974404
 30
0.0
 10
74.196394
 20
30.375604
 30
0.0
 10
74.276958
 20
26.876244
 30
0.0
 10
74.467462
 20
26.128244
 30
0.0
 10
75.016499
 20
25.585684
 30
0.0
 10
75.766722
 20
25.404084
 30
0.0
 10
76.503118
 20
25.635444
 30
0.0
 10
75.103045
 20
23.246804
 30
0.0
 10
73.477402
 20
21.028404
 30
0.0
 10
71.622207
 20
19.003284
 30
0.0
 10
69.533474
 20
17.195284
 30
0.0
 10
67.388165
 20
15.751684
 30
0.0
 10
65.094541
 20
14.561204
 30
0.0
 10
62.696235
 20
13.604644
 30
0.0
 10
60.236870
 20
12.862484
 30
0.0
 10
57.760075
 20
12.315844
 30
0.0
 10
55.309474
 20
11.945204
 30
0.0
 10
52.928698
 20
11.731524
 30
0.0
 10
50.661366
 20
11.656324
 30
0.0
 10
46.129327
 20
11.806804
 30
0.0
 10
43.831677
 20
12.051124
 30
0.0
 10
41.540892
 20
12.439684
 30
0.0
 10
39.277938
 20
12.996164
 30
0.0
 10
37.063776
 20
13.744324
 30
0.0
 10
34.919370
 20
14.707604
 30
0.0
 10
32.865685
 20
15.909924
 30
0.0
 10
30.897083
 20
17.329444
 30
0.0
 10
29.088042
 20
18.854004
 30
0.0
 10
27.441065
 20
20.463444
 30
0.0
 10
25.958651
 20
22.137764
 30
0.0
 10
24.643302
 20
23.856724
 30
0.0
 10
23.497518
 20
25.600404
 30
0.0
 10
22.523802
 20
27.348404
 30
0.0
 10
21.724654
 20
29.080804
 30
0.0
 10
20.456474
 20
32.787364
 30
0.0
 10
19.510490
 20
36.791524
 30
0.0
 10
18.873306
 20
40.810964
 30
0.0
 10
18.531521
 20
44.563508
 30
0.0
 10
18.539689
 20
47.759740
 30
0.0
 10
18.810474
 20
50.258604
 30
0.0
 10
21.426387
 20
48.922468
 30
0.0
 10
24.041610
 20
47.825532
 30
0.0
 10
26.630456
 20
46.945300
 30
0.0
 10
29.167238
 20
46.259276
 30
0.0
 10
31.626272
 20
45.744956
 30
0.0
 10
33.981873
 20
45.379828
 30
0.0
 10
38.280034
 20
45.007188
 30
0.0
 10
40.873914
 20
44.923828
 30
0.0
 10
43.936806
 20
44.944388
 30
0.0
 10
47.375346
 20
45.159636
 30
0.0
 10
51.096177
 20
45.660380
 30
0.0
 10
55.005932
 20
46.537380
 30
0.0
 10
57.002485
 20
47.145348
 30
0.0
 10
59.011258
 20
47.881412
 30
0.0
 10
61.020580
 20
48.756940
 30
0.0
 10
63.018786
 20
49.783260
 30
0.0
 10
64.994203
 20
50.971740
 30
0.0
 10
66.935160
 20
52.333692
 30
0.0
 10
69.058394
 20
54.131796
 30
0.0
 10
70.910598
 20
56.078604
 30
0.0
 10
72.510099
 20
58.143444
 30
0.0
 10
73.875224
 20
60.295652
 30
0.0
 10
73.875224
 20
60.295652
 30
0.0
  0
LWPOLYLINE
  5
109
100
AcDbEntity
  8
dued
 62
7
100
AcDbPolyline
 90
7
 70
0
 10
77.086722
 20
30.435044
 30
0.0
 10
77.411983
 20
30.063204
 30
0.0
 10
77.857155
 20
29.324884
 30
0.0
 10
78.033806
 20
29.064724
 30
0.0
 10
77.160050
 20
26.993524
 30
0.0
 10
77.086722
 20
30.435044
 30
0.0
 10
77.086722
 20
30.435044
 30
0.0
  0
LWPOLYLINE
  5
10a
100
AcDbEntity
  8
fill
 62
7
100
AcDbPolyline
 90
21
 70
0
 10
44.840469
 20
111.315132
 30
0.0
 10
17.502943
 20
109.120148
 30
0.0
 10
5.729848
 20
99.941132
 30
0.0
 10
1.938513
 20
84.177156
 30
0.0
 10
5.131216
 20
66.218196
 30
0.0
 10
15.707047
 20
53.646924
 30
0.0
 10
16.704767
 20
52.250116
 30
0.0
 10
17.303399
 20
38.481604
 30
0.0
 10
21.094735
 20
25.112164
 30
0.0
 10
32.867830
 20
13.339044
 30
0.0
 10
48.831349
 20
9.547684
 30
0.0
 10
59.207636
 20
10.345844
 30
0.0
 10
75.171154
 20
20.921684
 30
0.0
 10
80.957928
 20
35.089364
 30
0.0
 10
79.162034
 20
54.245556
 30
0.0
 10
73.574803
 20
61.229596
 30
0.0
 10
76.967050
 20
77.392660
 30
0.0
 10
74.971610
 20
91.959372
 30
0.0
 10
65.992131
 20
104.131556
 30
0.0
 10
44.840469
 20
111.315132
 30
0.0
 10
44.840469
 20
111.315132
 30
0.0
  0
LWPOLYLINE
  5
10b
100
AcDbEntity
  8
fill
 62
7
100
AcDbPolyline
 90
10
 70
0
 10
22.365270
 20
95.435796
 30
0.0
 10
29.633035
 20
90.921116
 30
0.0
 10
29.843491
 20
85.276204
 30
0.0
 10
25.752840
 20
82.032060
 30
0.0
 10
20.107928
 20
81.678180
 30
0.0
 10
16.369595
 20
84.077380
 30
0.0
 10
15.169214
 20
89.580428
 30
0.0
 10
17.498267
 20
93.108308
 30
0.0
 10
22.365270
 20
95.435796
 30
0.0
 10
22.365270
 20
95.435796
 30
0.0
  0
LWPOLYLINE
  5
10c
100
AcDbEntity
  8
fill
 62
7
100
AcDbPolyline
 90
7
 70
0
 10
15.682105
 20
43.470180
 30
0.0
 10
12.763774
 20
40.901044
 30
0.0
 10
11.516624
 20
33.717444
 30
0.0
 10
17.004083
 20
28.703924
 30
0.0
 10
18.500663
 20
29.078084
 30
0.0
 10
15.682105
 20
43.470180
 30
0.0
 10
15.682105
 20
43.470180
 30
0.0
  0
ENDSEC
  0
SECTION
  2
OBJECTS
  0
DICTIONARY
  5
C
330
0
100
AcDbDictionary
  3
ACAD_GROUP
350
D
  3
ACAD_MLINESTYLE
350
17
  0
DICTIONARY
  5
D
330
C
100
AcDbDictionary
  0
DICTIONARY
  5
1A
330
C
100
AcDbDictionary
  0
DICTIONARY
  5
17
330
C
100
AcDbDictionary
  3
STANDARD
350
18
  0
DICTIONARY
  5
19
330
C
100
AcDbDictionary
  0
ENDSEC
  0
EOF
