  0
SECTION
  2
HEADER
  9
$ACADVER
  1
AC1014
  9
$HANDSEED
  5
FFFF
  9
$MEASUREMENT
 70
     1
  0
ENDSEC
  0
SECTION
  2
TABLES
  0
TABLE
  2
VPORT
  5
8
330
0
100
AcDbSymbolTable
 70
     4
  0
VPORT
  5
2E
330
8
100
AcDbSymbolTableRecord
100
AcDbViewportTableRecord
  2
*ACTIVE
 70
     0
 10
0.0
 20
0.0
 11
1.0
 21
1.0
 12
210.0
 22
148.5
 13
0.0
 23
0.0
 14
10.0
 24
10.0
 15
10.0
 25
10.0
 16
0.0
 26
0.0
 36
1.0
 17
0.0
 27
0.0
 37
0.0
 40
341.0
 41
1.24
 42
50.0
 43
0.0
 44
0.0
 50
0.0
 51
0.0
 71
     0
 72
   100
 73
     1
 74
     3
 75
     0
 76
     0
 77
     0
 78
     0
  0
ENDTAB
  0
TABLE
  2
LTYPE
  5
5
330
0
100
AcDbSymbolTable
 70
     1
  0
LTYPE
  5
14
330
5
100
AcDbSymbolTableRecord
100
AcDbLinetypeTableRecord
  2
BYBLOCK
 70
     0
  3

 72
    65
 73
     0
 40
0.0
  0
LTYPE
  5
15
330
5
100
AcDbSymbolTableRecord
100
AcDbLinetypeTableRecord
  2
BYLAYER
 70
     0
  3

 72
    65
 73
     0
 40
0.0
  0
LTYPE
  5
16
330
5
100
AcDbSymbolTableRecord
100
AcDbLinetypeTableRecord
  2
CONTINUOUS
 70
     0
  3
Solid line
 72
    65
 73
     0
 40
0.0
  0
ENDTAB
  0
TABLE
  2
LAYER
  5
2
100
AcDbSymbolTable
 70
3
  0
LAYER
  5
50
100
AcDbSymbolTableRecord
100
AcDbLayerTableRecord
  2
0
 70
0
  6
CONTINUOUS
  0
LAYER
  5
51
100
AcDbSymbolTableRecord
100
AcDbLayerTableRecord
  2
dued
 70
0
  6
CONTINUOUS
  0
LAYER
  5
52
100
AcDbSymbolTableRecord
100
AcDbLayerTableRecord
  2
coin
 70
0
  6
CONTINUOUS
  0
ENDTAB
  0
TABLE
  2
STYLE
  5
3
330
0
100
AcDbSymbolTable
 70
     1
  0
STYLE
  5
11
330
3
100
AcDbSymbolTableRecord
100
AcDbTextStyleTableRecord
  2
STANDARD
 70
     0
 40
0.0
 41
1.0
 50
0.0
 71
     0
 42
2.5
  3
txt
  4

  0
ENDTAB
  0
TABLE
  2
VIEW
  5
6
330
0
100
AcDbSymbolTable
 70
     0
  0
ENDTAB
  0
TABLE
  2
UCS
  5
7
330
0
100
AcDbSymbolTable
 70
     0
  0
ENDTAB
  0
TABLE
  2
APPID
  5
9
330
0
100
AcDbSymbolTable
 70
     2
  0
APPID
  5
12
330
9
100
AcDbSymbolTableRecord
100
AcDbRegAppTableRecord
  2
ACAD
 70
     0
  0
ENDTAB
  0
TABLE
  2
DIMSTYLE
  5
A
330
0
100
AcDbSymbolTable
 70
     1
  0
DIMSTYLE
105
27
330
A
100
AcDbSymbolTableRecord
100
AcDbDimStyleTableRecord
  2
ISO-25
 70
     0
  3

  4

  5

  6

  7

 40
1.0
 41
2.5
 42
0.625
 43
3.75
 44
1.25
 45
0.0
 46
0.0
 47
0.0
 48
0.0
140
2.5
141
2.5
142
0.0
143
0.03937007874016
144
1.0
145
0.0
146
1.0
147
0.625
 71
     0
 72
     0
 73
     0
 74
     0
 75
     0
 76
     0
 77
     1
 78
     8
170
     0
171
     3
172
     1
173
     0
174
     0
175
     0
176
     0
177
     0
178
     0
270
     2
271
     2
272
     2
273
     2
274
     3
340
11
275
     0
280
     0
281
     0
282
     0
283
     0
284
     8
285
     0
286
     0
287
     3
288
     0
  0
ENDTAB
  0
TABLE
  2
BLOCK_RECORD
  5
1
330
0
100
AcDbSymbolTable
 70
     1
  0
BLOCK_RECORD
  5
1F
330
1
100
AcDbSymbolTableRecord
100
AcDbBlockTableRecord
  2
*MODEL_SPACE
  0
BLOCK_RECORD
  5
1B
330
1
100
AcDbSymbolTableRecord
100
AcDbBlockTableRecord
  2
*PAPER_SPACE
  0
ENDTAB
  0
ENDSEC
  0
SECTION
  2
BLOCKS
  0
BLOCK
  5
20
330
1F
100
AcDbEntity
  8
0
100
AcDbBlockBegin
  2
*MODEL_SPACE
 70
     0
 10
0.0
 20
0.0
 30
0.0
  3
*MODEL_SPACE
  1

  0
ENDBLK
  5
21
330
1F
100
AcDbEntity
  8
0
100
AcDbBlockEnd
  0
BLOCK
  5
1C
330
1B
100
AcDbEntity
 67
     1
  8
0
100
AcDbBlockBegin
  2
*PAPER_SPACE
  1

  0
ENDBLK
  5
1D
330
1B
100
AcDbEntity
 67
     1
  8
0
100
AcDbBlockEnd
  0
ENDSEC
  0
SECTION
  2
ENTITIES
  0
LWPOLYLINE
  5
100
100
AcDbEntity
  8
dued
 62
7
100
AcDbPolyline
 90
115
 70
0
 10
11.591200
 20
21.868230
 30
0.0
 10
10.561777
 20
21.857267
 30
0.0
 10
9.513051
 20
21.806960
 30
0.0
 10
8.458237
 20
21.706341
 30
0.0
 10
7.410548
 20
21.544440
 30
0.0
 10
6.893505
 20
21.437081
 30
0.0
 10
6.383199
 20
21.310288
 30
0.0
 10
5.881281
 20
21.162690
 30
0.0
 10
5.389404
 20
20.992915
 30
0.0
 10
4.909218
 20
20.799593
 30
0.0
 10
4.442376
 20
20.581352
 30
0.0
 10
3.990530
 20
20.336822
 30
0.0
 10
3.555331
 20
20.064630
 30
0.0
 10
3.091245
 20
19.728784
 30
0.0
 10
2.664125
 20
19.370463
 30
0.0
 10
2.272960
 20
18.989996
 30
0.0
 10
1.916742
 20
18.587710
 30
0.0
 10
1.594460
 20
18.163933
 30
0.0
 10
1.305104
 20
17.718994
 30
0.0
 10
1.047666
 20
17.253219
 30
0.0
 10
0.821135
 20
16.766937
 30
0.0
 10
0.624501
 20
16.260475
 30
0.0
 10
0.456756
 20
15.734162
 30
0.0
 10
0.316889
 20
15.188326
 30
0.0
 10
0.203890
 20
14.623294
 30
0.0
 10
0.116751
 20
14.039394
 30
0.0
 10
0.054461
 20
13.436954
 30
0.0
 10
0.016010
 20
12.816301
 30
0.0
 10
0.000389
 20
12.177765
 30
0.0
 10
0.018860
 20
11.507423
 30
0.0
 10
0.082260
 20
10.831090
 30
0.0
 10
0.188552
 20
10.152223
 30
0.0
 10
0.335697
 20
9.474279
 30
0.0
 10
0.521658
 20
8.800714
 30
0.0
 10
0.744396
 20
8.134985
 30
0.0
 10
1.001872
 20
7.480548
 30
0.0
 10
1.292050
 20
6.840861
 30
0.0
 10
1.612889
 20
6.219379
 30
0.0
 10
1.962353
 20
5.619560
 30
0.0
 10
2.338403
 20
5.044860
 30
0.0
 10
2.739000
 20
4.498736
 30
0.0
 10
3.162107
 20
3.984644
 30
0.0
 10
3.605685
 20
3.506041
 30
0.0
 10
4.067696
 20
3.066383
 30
0.0
 10
4.546102
 20
2.669128
 30
0.0
 10
5.026906
 20
2.317543
 30
0.0
 10
5.513819
 20
1.998065
 30
0.0
 10
6.005080
 20
1.709185
 30
0.0
 10
6.498928
 20
1.449396
 30
0.0
 10
6.993599
 20
1.217188
 30
0.0
 10
7.487333
 20
1.011054
 30
0.0
 10
7.978368
 20
0.829483
 30
0.0
 10
8.464942
 20
0.670969
 30
0.0
 10
9.417659
 20
0.417073
 30
0.0
 10
10.331391
 20
0.237298
 30
0.0
 10
11.192043
 20
0.119575
 30
0.0
 10
11.985522
 20
0.051834
 30
0.0
 10
12.813803
 20
0.011300
 30
0.0
 10
13.792471
 20
0.001439
 30
0.0
 10
14.892189
 20
0.051763
 30
0.0
 10
15.478274
 20
0.108715
 30
0.0
 10
16.083620
 20
0.191779
 30
0.0
 10
16.704561
 20
0.304644
 30
0.0
 10
17.337428
 20
0.450998
 30
0.0
 10
17.978555
 20
0.634529
 30
0.0
 10
18.624274
 20
0.858928
 30
0.0
 10
19.270919
 20
1.127881
 30
0.0
 10
19.914823
 20
1.445078
 30
0.0
 10
20.552318
 20
1.814208
 30
0.0
 10
21.179738
 20
2.238959
 30
0.0
 10
21.777004
 20
2.720075
 30
0.0
 10
22.310460
 20
3.238324
 30
0.0
 10
22.783532
 20
3.787494
 30
0.0
 10
23.199649
 20
4.361374
 30
0.0
 10
23.562238
 20
4.953753
 30
0.0
 10
23.874726
 20
5.558421
 30
0.0
 10
24.140541
 20
6.169165
 30
0.0
 10
24.363111
 20
6.779774
 30
0.0
 10
24.545863
 20
7.384038
 30
0.0
 10
24.692224
 20
7.975745
 30
0.0
 10
24.805623
 20
8.548684
 30
0.0
 10
24.889486
 20
9.096644
 30
0.0
 10
24.982317
 20
10.092781
 30
0.0
 10
24.998137
 20
10.914467
 30
0.0
 10
24.976435
 20
11.653147
 30
0.0
 10
24.921239
 20
12.481398
 30
0.0
 10
24.808545
 20
13.377699
 30
0.0
 10
24.723133
 20
13.844643
 30
0.0
 10
24.614345
 20
14.320529
 30
0.0
 10
24.479178
 20
14.802666
 30
0.0
 10
24.314633
 20
15.288366
 30
0.0
 10
24.117709
 20
15.774937
 30
0.0
 10
23.885405
 20
16.259689
 30
0.0
 10
23.614719
 20
16.739933
 30
0.0
 10
23.302653
 20
17.212978
 30
0.0
 10
22.946203
 20
17.676133
 30
0.0
 10
22.542371
 20
18.126710
 30
0.0
 10
22.084227
 20
18.562028
 30
0.0
 10
21.581068
 20
18.970104
 30
0.0
 10
21.038105
 20
19.350980
 30
0.0
 10
20.460544
 20
19.704700
 30
0.0
 10
19.853595
 20
20.031304
 30
0.0
 10
19.222465
 20
20.330837
 30
0.0
 10
18.572363
 20
20.603342
 30
0.0
 10
17.908498
 20
20.848860
 30
0.0
 10
17.236077
 20
21.067435
 30
0.0
 10
16.560310
 20
21.259109
 30
0.0
 10
15.886404
 20
21.423925
 30
0.0
 10
15.219568
 20
21.561927
 30
0.0
 10
14.565010
 20
21.673156
 30
0.0
 10
13.927938
 20
21.757655
 30
0.0
 10
13.313562
 20
21.815467
 30
0.0
 10
12.727088
 20
21.846635
 30
0.0
 10
11.591200
 20
21.868230
 30
0.0
 10
11.591200
 20
21.868230
 30
0.0
  0
LWPOLYLINE
  5
101
100
AcDbEntity
  8
dued
 62
7
100
AcDbPolyline
 90
112
 70
0
 10
11.588609
 20
20.944835
 30
0.0
 10
12.698583
 20
20.925832
 30
0.0
 10
13.242755
 20
20.895422
 30
0.0
 10
13.817824
 20
20.837564
 30
0.0
 10
14.418016
 20
20.752868
 30
0.0
 10
15.037558
 20
20.641942
 30
0.0
 10
15.670676
 20
20.505393
 30
0.0
 10
16.311597
 20
20.343829
 30
0.0
 10
16.954548
 20
20.157860
 30
0.0
 10
17.593756
 20
19.948092
 30
0.0
 10
18.223447
 20
19.715135
 30
0.0
 10
18.837847
 20
19.459596
 30
0.0
 10
19.431183
 20
19.182084
 30
0.0
 10
19.997683
 20
18.883206
 30
0.0
 10
20.531572
 20
18.563572
 30
0.0
 10
21.027077
 20
18.223788
 30
0.0
 10
21.478425
 20
17.864464
 30
0.0
 10
21.879843
 20
17.486207
 30
0.0
 10
22.238045
 20
17.086537
 30
0.0
 10
22.554583
 20
16.675140
 30
0.0
 10
22.832074
 20
16.254182
 30
0.0
 10
23.073136
 20
15.825830
 30
0.0
 10
23.280385
 20
15.392249
 30
0.0
 10
23.456438
 20
14.955605
 30
0.0
 10
23.603912
 20
14.518063
 30
0.0
 10
23.725423
 20
14.081791
 30
0.0
 10
23.901027
 20
13.221715
 30
0.0
 10
24.004185
 20
12.392705
 30
0.0
 10
24.055831
 20
11.612088
 30
0.0
 10
24.076901
 20
10.897191
 30
0.0
 10
24.060351
 20
10.152343
 30
0.0
 10
23.971184
 20
9.240391
 30
0.0
 10
23.892255
 20
8.736950
 30
0.0
 10
23.786635
 20
8.209972
 30
0.0
 10
23.651478
 20
7.665535
 30
0.0
 10
23.483939
 20
7.109720
 30
0.0
 10
23.281173
 20
6.548606
 30
0.0
 10
23.040333
 20
5.988273
 30
0.0
 10
22.758575
 20
5.434799
 30
0.0
 10
22.433053
 20
4.894266
 30
0.0
 10
22.060921
 20
4.372751
 30
0.0
 10
21.639334
 20
3.876335
 30
0.0
 10
21.165446
 20
3.411097
 30
0.0
 10
20.636412
 20
2.983117
 30
0.0
 10
20.063110
 20
2.595326
 30
0.0
 10
19.478877
 20
2.257791
 30
0.0
 10
18.887088
 20
1.967231
 30
0.0
 10
18.291121
 20
1.720364
 30
0.0
 10
17.694351
 20
1.513907
 30
0.0
 10
17.100155
 20
1.344579
 30
0.0
 10
16.511909
 20
1.209098
 30
0.0
 10
15.932989
 20
1.104181
 30
0.0
 10
15.366772
 20
1.026547
 30
0.0
 10
14.816634
 20
0.972914
 30
0.0
 10
13.778099
 20
0.924523
 30
0.0
 10
12.844395
 20
0.932751
 30
0.0
 10
12.042532
 20
0.971342
 30
0.0
 10
11.293166
 20
1.035456
 30
0.0
 10
10.483952
 20
1.146404
 30
0.0
 10
9.628051
 20
1.314955
 30
0.0
 10
8.738623
 20
1.551874
 30
0.0
 10
7.828829
 20
1.867932
 30
0.0
 10
7.370408
 20
2.059001
 30
0.0
 10
6.911831
 20
2.273893
 30
0.0
 10
6.454743
 20
2.513954
 30
0.0
 10
6.000789
 20
2.780528
 30
0.0
 10
5.551614
 20
3.074962
 30
0.0
 10
5.108863
 20
3.398601
 30
0.0
 10
4.683462
 20
3.753774
 30
0.0
 10
4.269237
 20
4.152837
 30
0.0
 10
3.868470
 20
4.591904
 30
0.0
 10
3.483443
 20
5.067087
 30
0.0
 10
3.116439
 20
5.574498
 30
0.0
 10
2.769740
 20
6.110250
 30
0.0
 10
2.445628
 20
6.670456
 30
0.0
 10
2.146385
 20
7.251227
 30
0.0
 10
1.874295
 20
7.848678
 30
0.0
 10
1.631638
 20
8.458919
 30
0.0
 10
1.420698
 20
9.078065
 30
0.0
 10
1.243757
 20
9.702226
 30
0.0
 10
1.103097
 20
10.327517
 30
0.0
 10
1.001000
 20
10.950048
 30
0.0
 10
0.939748
 20
11.565934
 30
0.0
 10
0.921625
 20
12.171286
 30
0.0
 10
0.935491
 20
12.777173
 30
0.0
 10
0.969088
 20
13.359860
 30
0.0
 10
1.023412
 20
13.919739
 30
0.0
 10
1.099460
 20
14.457198
 30
0.0
 10
1.198228
 20
14.972627
 30
0.0
 10
1.320713
 20
15.466416
 30
0.0
 10
1.467913
 20
15.938953
 30
0.0
 10
1.640823
 20
16.390628
 30
0.0
 10
1.840440
 20
16.821831
 30
0.0
 10
2.067761
 20
17.232952
 30
0.0
 10
2.323783
 20
17.624378
 30
0.0
 10
2.609502
 20
17.996501
 30
0.0
 10
2.925916
 20
18.349709
 30
0.0
 10
3.274020
 20
18.684392
 30
0.0
 10
3.654812
 20
19.000940
 30
0.0
 10
4.069288
 20
19.299741
 30
0.0
 10
4.453431
 20
19.539097
 30
0.0
 10
4.856911
 20
19.755347
 30
0.0
 10
5.278035
 20
19.949542
 30
0.0
 10
5.715113
 20
20.122732
 30
0.0
 10
6.166453
 20
20.275967
 30
0.0
 10
6.630362
 20
20.410297
 30
0.0
 10
7.589123
 20
20.626442
 30
0.0
 10
8.577862
 20
20.779568
 30
0.0
 10
9.583045
 20
20.878075
 30
0.0
 10
10.591139
 20
20.930364
 30
0.0
 10
11.588609
 20
20.944835
 30
0.0
 10
11.588609
 20
20.944835
 30
0.0
  0
LWPOLYLINE
  5
102
100
AcDbEntity
  8
dued
 62
7
100
AcDbPolyline
 90
61
 70
0
 10
16.401665
 20
16.481183
 30
0.0
 10
16.090699
 20
16.465635
 30
0.0
 10
15.774039
 20
16.417150
 30
0.0
 10
15.472955
 20
16.335594
 30
0.0
 10
15.188854
 20
16.223360
 30
0.0
 10
14.923144
 20
16.082841
 30
0.0
 10
14.677231
 20
15.916430
 30
0.0
 10
14.452522
 20
15.726520
 30
0.0
 10
14.250424
 20
15.515503
 30
0.0
 10
14.072343
 20
15.285774
 30
0.0
 10
13.919687
 20
15.039725
 30
0.0
 10
13.793862
 20
14.779748
 30
0.0
 10
13.696275
 20
14.508237
 30
0.0
 10
13.628333
 20
14.227586
 30
0.0
 10
13.591442
 20
13.940185
 30
0.0
 10
13.587010
 20
13.648430
 30
0.0
 10
13.616443
 20
13.354712
 30
0.0
 10
13.681148
 20
13.061425
 30
0.0
 10
13.782493
 20
12.775959
 30
0.0
 10
13.916438
 20
12.512241
 30
0.0
 10
14.079599
 20
12.270739
 30
0.0
 10
14.268593
 20
12.051923
 30
0.0
 10
14.480038
 20
11.856260
 30
0.0
 10
14.710550
 20
11.684219
 30
0.0
 10
14.956747
 20
11.536268
 30
0.0
 10
15.215245
 20
11.412876
 30
0.0
 10
15.483562
 20
11.313392
 30
0.0
 10
15.760060
 20
11.237172
 30
0.0
 10
16.042622
 20
11.184690
 30
0.0
 10
16.329133
 20
11.156420
 30
0.0
 10
16.617476
 20
11.152839
 30
0.0
 10
16.905535
 20
11.174420
 30
0.0
 10
17.191194
 20
11.221638
 30
0.0
 10
17.472337
 20
11.294968
 30
0.0
 10
17.903537
 20
11.465498
 30
0.0
 10
18.292319
 20
11.693618
 30
0.0
 10
18.631957
 20
11.974281
 30
0.0
 10
18.915723
 20
12.302443
 30
0.0
 10
19.136893
 20
12.673056
 30
0.0
 10
19.288741
 20
13.081074
 30
0.0
 10
19.336567
 20
13.297533
 30
0.0
 10
19.364541
 20
13.521451
 30
0.0
 10
19.371820
 20
13.752196
 30
0.0
 10
19.357566
 20
13.989140
 30
0.0
 10
19.316448
 20
14.252318
 30
0.0
 10
19.250374
 20
14.506073
 30
0.0
 10
19.160589
 20
14.749356
 30
0.0
 10
19.048336
 20
14.981116
 30
0.0
 10
18.914859
 20
15.200302
 30
0.0
 10
18.761403
 20
15.405866
 30
0.0
 10
18.589211
 20
15.596755
 30
0.0
 10
18.399528
 20
15.771922
 30
0.0
 10
18.193597
 20
15.930314
 30
0.0
 10
17.972664
 20
16.070883
 30
0.0
 10
17.737971
 20
16.192577
 30
0.0
 10
17.490763
 20
16.294347
 30
0.0
 10
17.232285
 20
16.375143
 30
0.0
 10
16.963780
 20
16.433915
 30
0.0
 10
16.686492
 20
16.469611
 30
0.0
 10
16.401665
 20
16.481183
 30
0.0
 10
16.401665
 20
16.481183
 30
0.0
  0
LWPOLYLINE
  5
103
100
AcDbEntity
  8
dued
 62
7
100
AcDbPolyline
 90
42
 70
0
 10
16.406848
 20
15.560380
 30
0.0
 10
16.811320
 20
15.530242
 30
0.0
 10
17.182581
 20
15.436660
 30
0.0
 10
17.515781
 20
15.285877
 30
0.0
 10
17.806069
 20
15.084134
 30
0.0
 10
18.048594
 20
14.837672
 30
0.0
 10
18.238505
 20
14.552733
 30
0.0
 10
18.370951
 20
14.235560
 30
0.0
 10
18.441081
 20
13.892395
 30
0.0
 10
18.450811
 20
13.577945
 30
0.0
 10
18.411257
 20
13.292680
 30
0.0
 10
18.323483
 20
13.036256
 30
0.0
 10
18.188551
 20
12.808331
 30
0.0
 10
18.007526
 20
12.608560
 30
0.0
 10
17.781469
 20
12.436601
 30
0.0
 10
17.511444
 20
12.292109
 30
0.0
 10
17.198514
 20
12.174742
 30
0.0
 10
16.797492
 20
12.091299
 30
0.0
 10
16.379657
 20
12.079590
 30
0.0
 10
15.964837
 20
12.137267
 30
0.0
 10
15.572855
 20
12.261985
 30
0.0
 10
15.224663
 20
12.446939
 30
0.0
 10
14.934544
 20
12.685271
 30
0.0
 10
14.814333
 20
12.823696
 30
0.0
 10
14.712325
 20
12.974554
 30
0.0
 10
14.629748
 20
13.137542
 30
0.0
 10
14.567832
 20
13.312357
 30
0.0
 10
14.526503
 20
13.500194
 30
0.0
 10
14.507719
 20
13.689455
 30
0.0
 10
14.510707
 20
13.878462
 30
0.0
 10
14.534692
 20
14.065536
 30
0.0
 10
14.642564
 20
14.427164
 30
0.0
 10
14.825145
 20
14.760905
 30
0.0
 10
15.076247
 20
15.053324
 30
0.0
 10
15.225561
 20
15.179838
 30
0.0
 10
15.389684
 20
15.290983
 30
0.0
 10
15.567844
 20
15.385080
 30
0.0
 10
15.759266
 20
15.460450
 30
0.0
 10
15.963178
 20
15.515411
 30
0.0
 10
16.178806
 20
15.548286
 30
0.0
 10
16.406848
 20
15.560380
 30
0.0
 10
16.406848
 20
15.560380
 30
0.0
  0
LWPOLYLINE
  5
104
100
AcDbEntity
  8
dued
 62
7
100
AcDbPolyline
 90
80
 70
0
 10
7.976657
 20
9.519873
 30
0.0
 10
7.695924
 20
9.516850
 30
0.0
 10
7.404862
 20
9.491675
 30
0.0
 10
7.132526
 20
9.443664
 30
0.0
 10
6.879519
 20
9.373903
 30
0.0
 10
6.646446
 20
9.283478
 30
0.0
 10
6.433911
 20
9.173473
 30
0.0
 10
6.242519
 20
9.044976
 30
0.0
 10
6.072874
 20
8.899071
 30
0.0
 10
5.925580
 20
8.736844
 30
0.0
 10
5.801546
 20
8.562075
 30
0.0
 10
5.700208
 20
8.378977
 30
0.0
 10
5.559208
 20
7.994741
 30
0.0
 10
5.489749
 20
7.598032
 30
0.0
 10
5.478999
 20
7.202747
 30
0.0
 10
5.525068
 20
6.800786
 30
0.0
 10
5.634486
 20
6.402300
 30
0.0
 10
5.808399
 20
6.011802
 30
0.0
 10
6.047955
 20
5.633807
 30
0.0
 10
6.354302
 20
5.272827
 30
0.0
 10
6.728586
 20
4.933376
 30
0.0
 10
7.171956
 20
4.619967
 30
0.0
 10
7.685559
 20
4.337113
 30
0.0
 10
8.201636
 20
4.104642
 30
0.0
 10
8.696627
 20
3.917206
 30
0.0
 10
9.181804
 20
3.768769
 30
0.0
 10
9.668443
 20
3.653296
 30
0.0
 10
10.167817
 20
3.564751
 30
0.0
 10
10.691200
 20
3.497098
 30
0.0
 10
11.855089
 20
3.400329
 30
0.0
 10
12.928912
 20
3.357543
 30
0.0
 10
13.444123
 20
3.362051
 30
0.0
 10
13.947915
 20
3.386831
 30
0.0
 10
14.442574
 20
3.434138
 30
0.0
 10
14.930387
 20
3.506224
 30
0.0
 10
15.413639
 20
3.605345
 30
0.0
 10
15.894618
 20
3.733753
 30
0.0
 10
16.374597
 20
3.902893
 30
0.0
 10
16.822717
 20
4.113886
 30
0.0
 10
17.233924
 20
4.365726
 30
0.0
 10
17.603166
 20
4.657410
 30
0.0
 10
17.925389
 20
4.987931
 30
0.0
 10
18.195542
 20
5.356286
 30
0.0
 10
18.408570
 20
5.761469
 30
0.0
 10
18.559421
 20
6.202475
 30
0.0
 10
18.641333
 20
6.679914
 30
0.0
 10
18.652396
 20
6.924604
 30
0.0
 10
18.642260
 20
7.170640
 30
0.0
 10
18.609973
 20
7.416046
 30
0.0
 10
18.554582
 20
7.658847
 30
0.0
 10
18.475136
 20
7.897068
 30
0.0
 10
18.370682
 20
8.128734
 30
0.0
 10
18.239035
 20
8.350503
 30
0.0
 10
18.079199
 20
8.558355
 30
0.0
 10
17.892007
 20
8.749293
 30
0.0
 10
17.678292
 20
8.920321
 30
0.0
 10
17.438887
 20
9.068441
 30
0.0
 10
17.174624
 20
9.190656
 30
0.0
 10
16.886336
 20
9.283970
 30
0.0
 10
16.574856
 20
9.345387
 30
0.0
 10
16.272076
 20
9.373528
 30
0.0
 10
15.987812
 20
9.374569
 30
0.0
 10
15.719132
 20
9.352795
 30
0.0
 10
15.463107
 20
9.312492
 30
0.0
 10
14.977296
 20
9.193439
 30
0.0
 10
14.506934
 20
9.051697
 30
0.0
 10
14.015502
 20
8.914914
 30
0.0
 10
13.452464
 20
8.803228
 30
0.0
 10
12.773350
 20
8.739655
 30
0.0
 10
12.376369
 20
8.733103
 30
0.0
 10
11.933694
 20
8.747210
 30
0.0
 10
11.097277
 20
8.819542
 30
0.0
 10
10.449017
 20
8.925139
 30
0.0
 10
9.937577
 20
9.051364
 30
0.0
 10
9.511618
 20
9.185585
 30
0.0
 10
9.162947
 20
9.301670
 30
0.0
 10
8.804205
 20
9.405746
 30
0.0
 10
8.415429
 20
9.483314
 30
0.0
 10
7.976657
 20
9.519873
 30
0.0
 10
7.976657
 20
9.519873
 30
0.0
  0
LWPOLYLINE
  5
105
100
AcDbEntity
  8
dued
 62
7
100
AcDbPolyline
 90
68
 70
0
 10
7.958949
 20
8.599933
 30
0.0
 10
8.292706
 20
8.574554
 30
0.0
 10
8.588851
 20
8.514141
 30
0.0
 10
9.219224
 20
8.311858
 30
0.0
 10
9.681713
 20
8.167731
 30
0.0
 10
10.256754
 20
8.027004
 30
0.0
 10
10.979231
 20
7.907557
 30
0.0
 10
11.884026
 20
7.827270
 30
0.0
 10
12.371842
 20
7.812625
 30
0.0
 10
12.817002
 20
7.821699
 30
0.0
 10
13.222735
 20
7.850833
 30
0.0
 10
13.592268
 20
7.896367
 30
0.0
 10
14.235652
 20
8.022001
 30
0.0
 10
14.772983
 20
8.169332
 30
0.0
 10
15.224043
 20
8.306122
 30
0.0
 10
15.622580
 20
8.407638
 30
0.0
 10
16.015367
 20
8.455866
 30
0.0
 10
16.449174
 20
8.432789
 30
0.0
 10
16.661152
 20
8.392947
 30
0.0
 10
16.848042
 20
8.336235
 30
0.0
 10
17.011787
 20
8.263814
 30
0.0
 10
17.154332
 20
8.176847
 30
0.0
 10
17.277620
 20
8.076497
 30
0.0
 10
17.383593
 20
7.963926
 30
0.0
 10
17.551374
 20
7.706771
 30
0.0
 10
17.664647
 20
7.411261
 30
0.0
 10
17.720859
 20
7.088707
 30
0.0
 10
17.721265
 20
6.756554
 30
0.0
 10
17.667122
 20
6.432244
 30
0.0
 10
17.561511
 20
6.121596
 30
0.0
 10
17.411021
 20
5.833229
 30
0.0
 10
17.216807
 20
5.567950
 30
0.0
 10
16.980024
 20
5.326566
 30
0.0
 10
16.701826
 20
5.109884
 30
0.0
 10
16.383369
 20
4.918710
 30
0.0
 10
16.025808
 20
4.753853
 30
0.0
 10
15.630298
 20
4.616118
 30
0.0
 10
15.201559
 20
4.501566
 30
0.0
 10
14.768749
 20
4.412691
 30
0.0
 10
14.328817
 20
4.347730
 30
0.0
 10
13.878713
 20
4.304916
 30
0.0
 10
12.935784
 20
4.278672
 30
0.0
 10
11.915554
 20
4.319837
 30
0.0
 10
10.798253
 20
4.409579
 30
0.0
 10
10.315975
 20
4.469460
 30
0.0
 10
9.865257
 20
4.547581
 30
0.0
 10
9.431582
 20
4.650113
 30
0.0
 10
9.000434
 20
4.783232
 30
0.0
 10
8.557297
 20
4.953111
 30
0.0
 10
8.087654
 20
5.165923
 30
0.0
 10
7.657117
 20
5.399633
 30
0.0
 10
7.299974
 20
5.644805
 30
0.0
 10
7.010894
 20
5.899295
 30
0.0
 10
6.784544
 20
6.160957
 30
0.0
 10
6.615592
 20
6.427647
 30
0.0
 10
6.498706
 20
6.697220
 30
0.0
 10
6.428554
 20
6.967531
 30
0.0
 10
6.399802
 20
7.236435
 30
0.0
 10
6.406933
 20
7.506542
 30
0.0
 10
6.449539
 20
7.754074
 30
0.0
 10
6.528606
 20
7.974067
 30
0.0
 10
6.645119
 20
8.161558
 30
0.0
 10
6.805679
 20
8.321056
 30
0.0
 10
7.028698
 20
8.453544
 30
0.0
 10
7.332887
 20
8.548768
 30
0.0
 10
7.736954
 20
8.596478
 30
0.0
 10
7.958949
 20
8.599933
 30
0.0
 10
7.958949
 20
8.599933
 30
0.0
  0
LWPOLYLINE
  5
106
100
AcDbEntity
  8
dued
 62
7
100
AcDbPolyline
 90
61
 70
0
 10
7.014391
 20
16.614207
 30
0.0
 10
6.703426
 20
16.598659
 30
0.0
 10
6.386765
 20
16.550174
 30
0.0
 10
6.085681
 20
16.468618
 30
0.0
 10
5.801580
 20
16.356384
 30
0.0
 10
5.535870
 20
16.215865
 30
0.0
 10
5.289957
 20
16.049454
 30
0.0
 10
5.065248
 20
15.859544
 30
0.0
 10
4.863150
 20
15.648528
 30
0.0
 10
4.685069
 20
15.418798
 30
0.0
 10
4.532413
 20
15.172749
 30
0.0
 10
4.406588
 20
14.912772
 30
0.0
 10
4.309001
 20
14.641262
 30
0.0
 10
4.241059
 20
14.360610
 30
0.0
 10
4.204168
 20
14.073210
 30
0.0
 10
4.199736
 20
13.781454
 30
0.0
 10
4.229169
 20
13.487737
 30
0.0
 10
4.293874
 20
13.194450
 30
0.0
 10
4.395219
 20
12.909002
 30
0.0
 10
4.529164
 20
12.645333
 30
0.0
 10
4.692325
 20
12.403900
 30
0.0
 10
4.881319
 20
12.185163
 30
0.0
 10
5.092764
 20
11.989580
 30
0.0
 10
5.323276
 20
11.817608
 30
0.0
 10
5.569473
 20
11.669706
 30
0.0
 10
5.827971
 20
11.546332
 30
0.0
 10
6.096288
 20
11.446848
 30
0.0
 10
6.372786
 20
11.370628
 30
0.0
 10
6.655348
 20
11.318146
 30
0.0
 10
6.941859
 20
11.289876
 30
0.0
 10
7.230202
 20
11.286295
 30
0.0
 10
7.518261
 20
11.307876
 30
0.0
 10
7.803920
 20
11.355094
 30
0.0
 10
8.085063
 20
11.428424
 30
0.0
 10
8.516245
 20
11.598935
 30
0.0
 10
8.904978
 20
11.827006
 30
0.0
 10
9.244546
 20
12.107601
 30
0.0
 10
9.528233
 20
12.435683
 30
0.0
 10
9.749324
 20
12.806217
 30
0.0
 10
9.901103
 20
13.214166
 30
0.0
 10
9.948901
 20
13.430597
 30
0.0
 10
9.976853
 20
13.654493
 30
0.0
 10
9.984119
 20
13.885225
 30
0.0
 10
9.969860
 20
14.122164
 30
0.0
 10
9.928747
 20
14.385342
 30
0.0
 10
9.862687
 20
14.639097
 30
0.0
 10
9.772923
 20
14.882380
 30
0.0
 10
9.660697
 20
15.114140
 30
0.0
 10
9.527253
 20
15.333327
 30
0.0
 10
9.373833
 20
15.538890
 30
0.0
 10
9.201681
 20
15.729780
 30
0.0
 10
9.012038
 20
15.904946
 30
0.0
 10
8.806148
 20
16.063338
 30
0.0
 10
8.585253
 20
16.203907
 30
0.0
 10
8.350597
 20
16.325601
 30
0.0
 10
8.103422
 20
16.427372
 30
0.0
 10
7.844971
 20
16.508168
 30
0.0
 10
7.576487
 20
16.566939
 30
0.0
 10
7.299213
 20
16.602636
 30
0.0
 10
7.014391
 20
16.614207
 30
0.0
 10
7.014391
 20
16.614207
 30
0.0
  0
LWPOLYLINE
  5
107
100
AcDbEntity
  8
dued
 62
7
100
AcDbPolyline
 90
42
 70
0
 10
7.019142
 20
15.693836
 30
0.0
 10
7.423632
 20
15.663698
 30
0.0
 10
7.794943
 20
15.570117
 30
0.0
 10
8.128212
 20
15.419333
 30
0.0
 10
8.418579
 20
15.217590
 30
0.0
 10
8.661184
 20
14.971128
 30
0.0
 10
8.851164
 20
14.686189
 30
0.0
 10
8.983659
 20
14.369017
 30
0.0
 10
9.053807
 20
14.025851
 30
0.0
 10
9.063537
 20
13.711401
 30
0.0
 10
9.023983
 20
13.426136
 30
0.0
 10
8.936209
 20
13.169712
 30
0.0
 10
8.801277
 20
12.941787
 30
0.0
 10
8.620252
 20
12.742016
 30
0.0
 10
8.394195
 20
12.570057
 30
0.0
 10
8.124170
 20
12.425565
 30
0.0
 10
7.811240
 20
12.308198
 30
0.0
 10
7.410218
 20
12.224755
 30
0.0
 10
6.992384
 20
12.213046
 30
0.0
 10
6.577563
 20
12.270724
 30
0.0
 10
6.185581
 20
12.395441
 30
0.0
 10
5.837389
 20
12.580395
 30
0.0
 10
5.547270
 20
12.818727
 30
0.0
 10
5.427059
 20
12.957152
 30
0.0
 10
5.325051
 20
13.108010
 30
0.0
 10
5.242474
 20
13.270998
 30
0.0
 10
5.180558
 20
13.445814
 30
0.0
 10
5.139229
 20
13.633650
 30
0.0
 10
5.120445
 20
13.822911
 30
0.0
 10
5.123433
 20
14.011918
 30
0.0
 10
5.147419
 20
14.198992
 30
0.0
 10
5.255290
 20
14.560620
 30
0.0
 10
5.437871
 20
14.894361
 30
0.0
 10
5.688973
 20
15.186780
 30
0.0
 10
5.838287
 20
15.313294
 30
0.0
 10
6.002410
 20
15.424440
 30
0.0
 10
6.180570
 20
15.518536
 30
0.0
 10
6.371992
 20
15.593906
 30
0.0
 10
6.575904
 20
15.648867
 30
0.0
 10
6.791532
 20
15.681743
 30
0.0
 10
7.019142
 20
15.693836
 30
0.0
 10
7.019142
 20
15.693836
 30
0.0
  0
LWPOLYLINE
  5
108
100
AcDbEntity
  8
coin
 62
7
100
AcDbPolyline
 90
29
 70
0
 10
10.410704
 20
21.850446
 30
0.0
 10
6.820425
 20
21.416758
 30
0.0
 10
3.557995
 20
20.060098
 30
0.0
 10
1.919518
 20
18.583534
 30
0.0
 10
0.824154
 20
16.763545
 30
0.0
 10
0.207154
 20
14.620688
 30
0.0
 10
0.003759
 20
12.175515
 30
0.0
 10
0.338492
 20
9.472230
 30
0.0
 10
1.293571
 20
6.839249
 30
0.0
 10
2.739249
 20
4.497564
 30
0.0
 10
4.545773
 20
2.668154
 30
0.0
 10
6.499253
 20
1.448096
 30
0.0
 10
8.466709
 20
0.668954
 30
0.0
 10
11.989384
 20
0.048779
 30
0.0
 10
16.085306
 20
0.188773
 30
0.0
 10
18.624463
 20
0.855954
 30
0.0
 10
21.179245
 20
2.236001
 30
0.0
 10
23.199223
 20
4.358857
 30
0.0
 10
24.362831
 20
6.778230
 30
0.0
 10
24.889350
 20
9.096070
 30
0.0
 10
24.998065
 20
10.914335
 30
0.0
 10
24.616255
 20
14.321428
 30
0.0
 10
23.888675
 20
16.261297
 30
0.0
 10
22.546259
 20
18.128640
 30
0.0
 10
20.464314
 20
19.706926
 30
0.0
 10
17.912007
 20
20.851729
 30
0.0
 10
12.730218
 20
21.850446
 30
0.0
 10
10.410704
 20
21.850446
 30
0.0
 10
10.410704
 20
21.850446
 30
0.0
  0
ENDSEC
  0
SECTION
  2
OBJECTS
  0
DICTIONARY
  5
C
330
0
100
AcDbDictionary
  3
ACAD_GROUP
350
D
  3
ACAD_MLINESTYLE
350
17
  0
DICTIONARY
  5
D
330
C
100
AcDbDictionary
  0
DICTIONARY
  5
1A
330
C
100
AcDbDictionary
  0
DICTIONARY
  5
17
330
C
100
AcDbDictionary
  3
STANDARD
350
18
  0
DICTIONARY
  5
19
330
C
100
AcDbDictionary
  0
ENDSEC
  0
EOF
